<?xml version="1.0" standalone="no"?>
<!DOCTYPE svg PUBLIC "-//W3C//DTD SVG 20010904//EN"
 "http://www.w3.org/TR/2001/REC-SVG-20010904/DTD/svg10.dtd">
<svg version="1.0" xmlns="http://www.w3.org/2000/svg"
 width="984.000000pt" height="984.000000pt" viewBox="0 0 984.000000 984.000000"
 preserveAspectRatio="xMidYMid meet">
<metadata>
Created by potrace 1.14, written by Peter Selinger 2001-2017
</metadata>
<g transform="translate(0.000000,984.000000) scale(0.100000,-0.100000)"
fill="#000000" stroke="none">
<path d="M8124 8886 c-58 -70 -92 -101 -107 -98 -9 2 -17 8 -17 13 0 5 -5 9
-11 9 -6 0 -44 20 -85 44 l-73 45 -58 -61 c-32 -33 -64 -67 -72 -75 -12 -12
-12 -21 -1 -56 21 -65 19 -82 -10 -85 -20 -2 -30 7 -51 40 -22 38 -34 46 -104
71 -92 32 -75 40 -196 -90 l-30 -33 30 -44 c17 -25 31 -49 31 -55 0 -6 5 -11
10 -11 6 0 10 -4 10 -10 0 -5 -7 -10 -15 -10 -8 0 -15 -4 -15 -10 0 -23 -27
-7 -71 42 -45 51 -47 52 -100 51 -54 -1 -54 -2 -121 -74 -38 -40 -68 -77 -68
-82 0 -4 9 -18 21 -30 11 -12 33 -38 49 -57 l28 -36 -22 -19 -22 -20 -55 52
c-49 48 -79 65 -79 46 0 -5 -26 -35 -58 -69 -31 -34 -69 -75 -84 -92 l-28 -32
55 -54 c52 -51 55 -56 44 -80 -7 -14 -15 -26 -18 -26 -6 0 -45 30 -100 77
l-26 22 -67 -72 -68 -72 5 -55 c3 -42 10 -59 27 -73 79 -64 88 -77 75 -100 -6
-12 -13 -23 -14 -25 -1 -2 -25 12 -55 32 -29 20 -57 36 -62 36 -6 0 -27 -19
-49 -42 -21 -24 -51 -55 -65 -71 l-26 -27 38 -73 c29 -56 49 -80 81 -100 35
-22 42 -33 41 -56 -1 -33 -12 -34 -74 -2 l-40 20 -66 -72 c-36 -39 -66 -75
-66 -79 0 -3 6 -13 13 -20 7 -7 32 -41 56 -75 24 -35 58 -71 76 -82 26 -15 32
-25 32 -49 -2 -26 -4 -29 -19 -21 -10 5 -18 7 -18 4 0 -3 -9 -1 -19 4 -16 9
-29 0 -89 -65 -44 -47 -68 -81 -66 -92 3 -11 -20 -43 -60 -85 -61 -64 -64 -70
-54 -98 18 -52 -36 -77 -63 -28 -5 10 -35 38 -67 61 -31 24 -59 45 -62 48 -3
3 -20 16 -39 29 l-34 24 -61 -65 c-95 -100 -91 -94 -71 -125 50 -78 49 -74 34
-71 -8 2 -13 -2 -12 -8 4 -25 -54 0 -82 36 -16 21 -46 46 -65 56 -19 10 -47
26 -62 36 -37 26 -47 23 -91 -24 -21 -24 -53 -58 -70 -75 -29 -31 -30 -34 -14
-51 9 -10 17 -21 17 -25 0 -3 13 -20 30 -38 22 -24 26 -35 17 -41 -9 -6 -8
-10 3 -18 8 -5 10 -10 4 -10 -5 0 -15 5 -21 11 -8 8 -13 7 -18 -1 -5 -8 -26 6
-64 43 -37 36 -70 59 -96 66 l-39 11 -68 -73 c-37 -39 -67 -77 -68 -82 0 -6
17 -29 38 -51 64 -67 65 -70 47 -88 -25 -25 -38 -20 -95 36 l-52 51 -57 -60
c-31 -33 -68 -75 -83 -92 l-28 -31 57 -55 c54 -52 56 -56 43 -80 -18 -33 -30
-32 -71 11 -48 50 -67 59 -95 44 -20 -11 -26 -9 -56 24 -30 33 -38 36 -69 31
-22 -3 -29 -2 -20 4 25 16 3 58 -69 132 l-70 72 -22 -19 c-12 -10 -28 -25 -36
-31 -22 -21 -23 -15 -3 17 l18 30 -73 76 -74 75 -30 -23 c-16 -12 -30 -25 -30
-30 0 -4 -6 -8 -14 -8 -8 0 -16 -7 -20 -15 -3 -8 -13 -15 -23 -14 -11 0 -13 3
-5 6 21 8 14 20 -55 93 -61 64 -93 85 -93 60 0 -5 -7 -10 -15 -10 -8 0 -15 -4
-15 -10 0 -5 -6 -10 -14 -10 -8 0 -16 -4 -18 -8 -1 -5 -21 -20 -43 -34 l-39
-25 -24 26 c-13 14 -44 47 -68 73 l-45 48 -32 -16 c-73 -35 -94 -50 -139 -98
-38 -40 -48 -47 -48 -31 0 27 -113 141 -145 147 -14 3 -25 1 -25 -3 0 -5 -7
-6 -15 -3 -9 4 -37 -17 -77 -56 -42 -42 -70 -62 -86 -62 -18 0 -46 23 -102 82
l-78 83 -38 -31 -38 -32 -23 27 c-13 14 -23 28 -23 30 0 1 25 27 56 56 67 63
68 60 -43 176 -40 42 -73 81 -73 88 0 7 17 25 37 40 21 15 40 30 43 33 3 3 17
15 31 25 14 11 27 25 28 30 2 6 8 19 13 29 6 11 13 34 15 50 3 27 -5 40 -63
100 -61 64 -65 71 -48 83 10 7 21 13 24 13 4 0 24 29 45 65 21 36 42 68 47 71
19 12 4 43 -52 101 -33 35 -60 66 -60 71 0 5 9 18 20 30 11 12 20 24 20 27 0
3 8 14 18 24 43 48 44 45 -24 112 -35 35 -64 68 -64 73 0 5 9 20 21 32 l21 23
-88 90 c-49 50 -120 125 -159 167 -53 57 -74 74 -89 70 -15 -4 -34 10 -76 54
-31 33 -60 60 -64 60 -4 0 -28 -15 -53 -32 l-45 -33 -58 61 c-33 34 -63 58
-67 54 -4 -4 -43 -26 -87 -48 l-78 -40 -47 50 -46 49 -70 -17 c-68 -17 -77
-23 -124 -84 l-19 -25 -57 58 c-31 31 -59 57 -63 58 -4 0 -27 3 -51 6 -43 5
-44 4 -102 -58 -33 -35 -67 -64 -76 -64 -10 0 -33 18 -53 39 -19 22 -54 60
-77 84 l-41 44 -77 -67 c-42 -37 -72 -58 -66 -47 10 19 5 28 -36 72 -25 27
-50 50 -53 50 -7 0 -36 -22 -70 -53 -8 -7 -59 -51 -113 -97 l-98 -83 33 -35
c87 -92 78 -86 109 -68 16 9 30 12 33 7 8 -12 0 -17 -42 -26 -17 -3 -32 -10
-32 -15 0 -5 -25 -45 -55 -90 -30 -45 -55 -85 -55 -88 0 -4 31 -40 69 -80 73
-78 74 -78 149 -51 33 13 39 11 45 -10 7 -27 -7 -45 -51 -65 -34 -15 -42 -27
-73 -100 l-36 -83 21 -20 c12 -10 43 -43 70 -71 53 -58 60 -59 128 -16 46 30
54 30 69 2 13 -23 9 -28 -70 -88 -29 -22 -33 -31 -35 -80 -3 -54 -2 -55 53
-114 31 -33 62 -67 69 -75 12 -12 22 -8 70 26 31 22 62 42 68 46 7 4 19 -4 28
-17 15 -24 14 -26 -15 -53 -76 -69 -79 -73 -69 -91 14 -25 166 -182 177 -182
4 0 19 10 33 23 14 12 40 34 58 49 33 28 33 28 54 8 24 -22 26 -19 -54 -100
-33 -34 -35 -38 -20 -52 10 -8 40 -40 69 -73 l51 -58 56 2 c53 1 58 4 102 51
37 39 52 49 68 44 38 -11 37 -20 -4 -71 -22 -28 -40 -55 -40 -60 0 -13 123
-143 135 -143 13 0 139 53 145 61 64 82 82 93 108 67 9 -9 6 -22 -14 -55 -14
-24 -24 -48 -22 -53 2 -5 31 -39 66 -75 l63 -66 37 22 c93 57 148 99 162 123
8 16 19 25 28 21 7 -3 20 -5 27 -5 11 0 12 -7 4 -32 -5 -18 -9 -37 -9 -43 1
-20 128 -147 140 -140 7 5 37 -19 77 -61 59 -62 69 -68 104 -68 24 0 39 -4 39
-12 0 -7 3 -19 6 -27 3 -10 -6 -22 -25 -33 -17 -10 -55 -48 -84 -83 -28 -36
-60 -74 -70 -84 -19 -19 -18 -20 15 -55 51 -54 119 -122 124 -122 2 0 23 11
48 25 40 23 45 23 52 7 16 -36 11 -51 -30 -77 -24 -15 -61 -56 -89 -97 l-48
-71 35 -36 c19 -20 52 -55 73 -79 l39 -42 58 40 c31 22 59 40 61 40 3 0 11
-13 19 -28 14 -28 14 -29 -35 -68 -47 -36 -89 -96 -89 -126 0 -18 132 -158
148 -158 6 0 12 5 12 10 0 6 4 10 9 10 6 0 27 16 48 35 21 19 42 35 46 35 13
0 37 -27 30 -34 -4 -3 0 -6 8 -6 7 0 -14 -26 -49 -57 l-63 -58 82 -87 c45 -49
85 -88 89 -88 4 0 26 17 49 38 54 49 69 62 74 62 2 0 14 -9 26 -19 l23 -20
-51 -50 c-28 -27 -52 -54 -53 -60 -2 -5 28 -43 66 -84 l70 -76 45 24 c25 13
66 43 89 68 43 44 44 44 73 30 33 -17 33 -17 -28 -82 -18 -19 -33 -37 -33 -41
0 -3 29 -37 65 -75 36 -38 65 -73 65 -77 0 -3 19 -26 43 -49 l42 -43 -42 -9
c-46 -9 -32 -19 -199 140 l-34 31 -52 -55 c-29 -31 -63 -66 -75 -79 -13 -13
-23 -27 -23 -32 0 -5 23 -30 51 -55 42 -39 49 -49 38 -59 -30 -28 -55 -20
-117 40 -34 32 -62 56 -62 54 0 -2 -8 6 -18 18 l-18 22 -73 -80 c-40 -45 -73
-83 -74 -86 -1 -3 22 -30 51 -59 57 -59 62 -71 33 -87 -16 -8 -29 -1 -78 45
l-58 55 -55 -58 c-30 -32 -65 -70 -78 -84 l-24 -26 61 -58 c56 -54 59 -61 46
-78 -14 -18 -16 -17 -62 23 -26 23 -54 47 -62 53 -11 9 -29 -5 -87 -68 -41
-43 -74 -81 -74 -85 0 -3 36 -40 80 -83 44 -43 80 -81 80 -85 0 -3 -4 -12 -9
-20 -7 -11 -19 -5 -58 28 -27 22 -54 41 -59 41 -10 0 -136 -134 -142 -150 -2
-5 40 -52 92 -104 62 -63 93 -101 90 -111 -8 -20 -10 -20 -55 16 l-39 31 -35
-39 c-20 -21 -52 -55 -72 -75 l-36 -37 18 -28 c10 -15 53 -62 96 -104 54 -52
77 -83 76 -97 -2 -27 -9 -28 -32 -2 -18 20 -18 20 -39 -3 -12 -13 -45 -49 -73
-81 l-53 -57 26 -41 c15 -23 40 -53 58 -67 63 -52 96 -90 96 -110 0 -12 -6
-21 -15 -21 -8 0 -15 -3 -15 -7 0 -5 -25 -35 -56 -67 -30 -32 -62 -70 -71 -83
-14 -21 -14 -25 0 -41 15 -17 13 -22 -38 -75 -30 -31 -59 -65 -64 -75 -6 -11
-22 -22 -36 -24 -20 -4 -38 7 -98 67 -52 51 -86 77 -115 86 -47 14 -41 18
-146 -101 -53 -59 -56 -65 -40 -77 10 -7 15 -16 12 -19 -13 -12 -44 8 -76 49
-19 23 -68 63 -109 88 l-76 46 -56 -60 c-31 -34 -66 -72 -78 -85 -26 -26 -29
-38 -10 -45 6 -3 7 -6 2 -6 -6 -1 -50 28 -99 64 l-88 65 -51 -57 c-29 -31 -65
-70 -80 -86 -22 -23 -26 -32 -16 -43 22 -27 -8 -14 -48 21 -23 19 -46 35 -53
35 -6 0 -32 -23 -58 -52 -26 -29 -59 -64 -74 -79 -15 -15 -24 -30 -21 -33 4
-3 1 -6 -4 -6 -12 0 -61 -47 -152 -144 l-54 -58 129 -129 c103 -103 130 -126
137 -113 6 11 3 22 -12 38 -12 12 -21 25 -21 29 0 18 46 57 68 57 14 0 22 -3
19 -6 -3 -4 8 -20 26 -35 51 -46 54 -48 63 -41 4 4 4 2 1 -4 -3 -6 16 -31 43
-56 28 -26 50 -44 50 -42 0 1 11 -8 25 -22 14 -14 25 -29 25 -35 0 -6 4 -8 9
-5 5 3 12 -1 15 -10 5 -13 9 -14 21 -4 13 11 14 10 10 -3 -4 -10 7 -27 31 -49
21 -18 44 -41 53 -51 8 -9 22 -17 30 -17 8 0 12 -3 8 -6 -3 -3 6 -16 21 -29
19 -17 29 -20 35 -12 5 7 6 2 2 -10 -3 -13 -2 -23 3 -23 11 0 58 -41 151 -133
38 -37 72 -67 75 -67 3 0 34 -28 70 -62 106 -103 175 -163 186 -161 5 2 6 -5
3 -15 -3 -9 -3 -14 1 -11 6 6 56 -35 56 -45 0 -2 -11 -16 -24 -31 -39 -45 -42
-76 -11 -102 l26 -23 -20 -26 c-11 -15 -18 -30 -16 -35 8 -11 32 -1 39 17 9
24 29 15 91 -41 l60 -55 33 37 c19 21 51 56 72 79 21 22 45 55 54 73 l17 33
-61 58 -61 58 16 31 16 31 52 -41 c28 -23 54 -45 55 -50 7 -19 29 -7 71 39 24
26 57 61 73 78 l28 30 -16 46 c-16 47 -47 87 -98 123 -25 19 -27 25 -21 58 6
33 25 53 25 27 0 -5 5 -10 10 -10 6 0 29 -13 51 -30 l41 -30 47 50 c99 106
103 111 89 130 -7 10 -29 40 -48 66 -40 58 -45 63 -87 92 -24 17 -32 29 -29
45 3 12 5 28 5 35 1 8 16 5 50 -12 l48 -25 59 66 c33 36 65 72 73 80 7 8 12
16 10 18 -2 2 -26 29 -54 61 -65 75 -116 124 -127 124 -5 0 -7 12 -4 28 2 15
5 30 5 34 1 4 15 5 31 1 32 -6 41 2 146 125 l24 27 -67 67 -67 67 21 23 c12
13 26 35 31 49 8 20 18 26 41 27 17 0 34 -5 38 -11 7 -10 78 -72 152 -133 13
-10 29 -25 37 -32 11 -10 19 -6 46 24 18 20 39 43 47 51 7 8 28 32 47 54 l34
40 -21 22 c-27 29 -20 50 17 54 25 3 39 -4 70 -34 21 -21 59 -54 83 -73 25
-19 56 -44 70 -56 l25 -21 42 46 c115 125 113 123 97 147 -8 12 -21 25 -29 28
-8 3 -14 12 -14 21 0 8 -4 15 -10 15 -22 0 -8 19 21 29 35 12 32 14 100 -51
25 -24 66 -58 92 -76 l46 -33 28 32 c15 18 39 44 53 58 14 15 36 38 49 53 l23
27 -51 51 c-28 28 -51 53 -51 56 0 9 24 30 40 36 10 3 35 -14 70 -48 30 -29
68 -59 83 -65 26 -11 31 -10 53 17 14 16 42 48 63 70 59 64 59 61 -4 124 l-57
58 22 22 c25 25 34 21 103 -44 21 -20 41 -36 44 -36 4 0 23 18 42 39 20 22 51
55 69 75 17 19 32 40 32 45 0 6 -27 37 -61 70 l-61 60 21 29 21 29 55 -54 c45
-45 57 -52 68 -41 73 78 127 141 127 148 0 8 -31 41 -109 113 -44 41 -47 51
-31 92 l10 26 46 -46 47 -46 36 39 c20 22 51 56 70 77 l33 37 66 -67 65 -66
22 23 c31 33 86 80 89 76 1 -2 7 -16 14 -31 12 -28 10 -31 -70 -108 l-82 -78
24 -27 c14 -15 48 -52 77 -83 l52 -55 60 52 c33 29 64 52 70 52 6 0 13 -11 17
-24 5 -20 -2 -32 -37 -63 -73 -65 -71 -63 -57 -81 7 -8 43 -47 79 -85 l65 -69
35 34 c83 80 86 81 108 66 19 -14 18 -16 -35 -68 -29 -29 -54 -58 -54 -64 0
-14 135 -156 148 -156 5 0 23 12 39 28 107 99 135 121 148 116 20 -8 19 -20
-2 -42 -10 -11 -31 -33 -46 -49 l-29 -31 73 -76 c68 -71 92 -87 101 -68 2 4
35 34 73 66 39 33 77 68 85 77 14 17 42 20 56 6 3 -3 -11 -22 -32 -42 l-37
-36 35 -37 c19 -20 51 -54 71 -74 19 -21 41 -38 47 -38 17 0 129 88 169 132
21 23 43 38 58 38 26 0 30 -12 8 -30 -18 -15 -19 -27 -2 -45 6 -7 38 -40 70
-74 l59 -61 43 25 c24 13 71 51 103 85 67 68 76 69 126 12 53 -60 137 -142
145 -142 5 0 14 7 21 15 11 13 23 4 86 -60 51 -51 74 -82 74 -99 0 -21 -40
-64 -131 -138 -25 -21 -56 -101 -41 -106 6 -2 12 -10 12 -18 0 -8 7 -14 15
-14 8 0 15 -3 15 -7 0 -5 25 -34 56 -67 41 -43 58 -56 67 -47 15 15 27 14 27
-3 0 -8 -22 -30 -49 -50 -49 -36 -64 -53 -122 -135 l-31 -43 25 -27 c13 -14
48 -52 78 -84 38 -42 59 -57 72 -53 19 5 19 4 0 -17 -70 -79 -123 -145 -123
-153 0 -5 36 -47 81 -93 63 -67 82 -82 90 -70 5 7 9 10 9 4 0 -5 -18 -28 -40
-50 -44 -45 -47 -54 -22 -76 28 -26 155 -163 177 -191 11 -15 51 -59 89 -98
l68 -72 26 24 c15 13 29 25 32 28 3 3 37 32 75 65 39 33 72 62 75 65 3 3 19
17 36 31 24 20 28 27 18 37 -9 9 -18 7 -37 -8 -33 -26 -38 -25 -70 8 l-27 28
34 34 c19 19 55 54 80 78 25 24 46 48 46 53 0 5 6 9 14 9 7 0 24 12 37 28 13
15 41 42 62 60 21 17 35 32 32 32 -4 0 0 7 9 15 8 8 20 15 26 15 7 0 9 7 6 16
-3 9 -2 12 5 9 5 -4 34 18 64 49 30 31 55 54 55 51 0 -2 11 7 25 21 14 14 25
30 25 36 0 6 3 9 6 6 3 -4 34 22 70 57 35 35 64 61 64 57 1 -4 7 4 15 18 8 14
14 22 15 17 0 -4 30 23 68 60 37 36 66 70 65 74 -2 5 5 5 14 2 9 -4 14 -2 11
3 -6 11 28 45 36 36 3 -3 6 2 6 11 0 10 3 16 8 15 4 -2 33 23 66 55 60 59 82
69 93 42 3 -9 22 -24 42 -34 36 -18 36 -18 61 5 30 29 36 29 57 5 9 -11 22
-17 29 -14 10 4 8 12 -9 35 l-22 29 58 53 c31 29 57 57 57 63 0 20 -157 170
-185 177 -25 6 -35 1 -85 -49 -52 -51 -59 -55 -73 -41 -8 9 -20 16 -26 16 -20
0 -11 16 44 75 l54 59 -22 24 c-12 13 -47 50 -79 82 l-56 58 -57 -23 c-34 -14
-73 -41 -100 -68 -42 -43 -45 -45 -74 -34 -17 6 -31 14 -31 17 0 4 18 26 40
51 22 24 40 49 40 54 0 15 -138 155 -152 155 -21 -1 -130 -76 -173 -120 -40
-40 -41 -41 -73 -27 -31 13 -32 14 -13 33 48 52 47 57 -31 138 -39 42 -75 76
-80 76 -4 0 -16 -7 -25 -15 -10 -8 -53 -42 -95 -75 -43 -34 -78 -66 -78 -71 0
-10 -57 -6 -66 4 -3 2 0 15 5 29 8 23 2 33 -64 104 l-74 78 -23 -19 c-13 -11
-34 -31 -48 -44 -14 -12 -37 -32 -52 -42 -27 -20 -27 -20 -45 1 -10 12 -29 28
-43 35 -49 26 -37 52 72 161 55 56 99 106 97 112 -2 6 -37 45 -78 87 l-75 77
-34 -16 c-18 -9 -37 -14 -41 -12 -10 7 -13 76 -3 76 9 0 100 88 160 154 39 43
43 33 -60 139 l-67 69 -47 -36 c-52 -40 -63 -43 -65 -21 -3 28 -4 33 -11 40
-7 7 14 35 27 35 6 0 95 90 133 135 27 31 33 20 -74 132 l-61 63 -57 -50 c-31
-27 -59 -50 -61 -50 -2 0 -11 14 -19 31 -15 30 -15 33 3 48 98 85 127 122 114
146 -12 20 -133 145 -141 145 -7 0 -49 -35 -104 -86 -16 -14 -28 -21 -28 -15
0 6 -9 19 -20 29 -20 18 -20 19 41 76 l62 57 -49 51 c-100 104 -105 108 -123
98 -9 -5 -38 -30 -66 -55 -27 -25 -56 -43 -63 -40 -8 3 -17 5 -22 5 -4 0 -11
7 -14 16 -4 12 9 30 44 62 27 24 50 50 50 56 0 6 -33 43 -73 83 l-72 72 -45
-40 c-25 -22 -62 -56 -83 -75 -29 -28 -42 -34 -60 -28 -12 5 -25 7 -29 6 -3
-1 -8 4 -11 11 -2 7 15 28 39 47 23 19 43 40 43 45 1 6 -31 43 -70 83 l-71 73
-26 -23 c-14 -13 -37 -34 -52 -48 -68 -65 -106 -95 -117 -94 -7 1 -22 2 -33 3
-27 1 -25 14 5 42 31 30 31 43 -1 68 -15 12 -25 21 -22 21 2 0 -20 26 -49 58
-29 31 -53 60 -53 64 0 13 31 -4 59 -31 15 -14 46 -41 68 -59 23 -18 54 -44
69 -57 l28 -24 35 39 c105 113 117 130 105 139 -9 6 -54 65 -69 90 -5 8 10 0
33 -19 23 -18 42 -37 42 -42 0 -4 4 -8 10 -8 5 0 23 -13 38 -30 l29 -30 58 63
c73 78 89 102 82 126 -3 14 2 18 25 19 18 0 38 10 50 24 11 13 34 39 51 58 76
84 72 74 38 109 -38 39 -39 46 -3 27 28 -15 29 -14 88 51 32 36 63 72 68 80 8
14 -31 63 -99 125 -20 18 -19 18 10 3 33 -16 35 -15 133 98 l32 38 -47 60
c-80 100 -77 90 -42 129 17 19 47 52 67 73 l37 38 -25 47 c-14 26 -30 53 -37
60 -7 7 -13 17 -13 21 0 3 -15 15 -32 26 -56 32 -60 45 -24 74 17 14 36 33 42
41 7 8 25 30 42 49 27 31 28 37 20 75 -5 22 -13 43 -17 46 -5 3 -34 27 -65 54
-43 37 -56 54 -53 72 2 13 34 58 72 100 39 42 71 80 73 85 2 5 -10 23 -28 40
-32 33 -30 48 12 70 15 8 28 1 71 -40 53 -50 53 -50 79 -33 14 9 60 53 102 97
l76 80 41 -45 c23 -25 51 -56 63 -70 14 -17 40 -30 79 -39 64 -14 54 -20 153
90 l41 46 18 -27 c10 -16 53 -44 100 -67 68 -34 84 -39 98 -28 9 7 17 14 17
17 0 2 21 28 48 56 l47 52 70 -45 69 -45 67 72 67 73 22 -23 c17 -17 25 -20
40 -12 11 6 23 16 27 24 11 20 83 100 186 207 84 89 98 111 78 124 -6 3 13 31
42 61 71 76 71 77 38 113 -46 49 -45 56 9 116 47 52 63 85 40 85 -5 0 -10 5
-10 11 0 6 -9 24 -21 40 -11 16 -17 29 -12 29 4 0 1 5 -7 10 -8 5 -15 14 -15
20 0 6 -6 14 -13 19 -13 8 0 29 60 95 23 25 23 25 -4 103 -19 56 -28 68 -65
90 -24 14 -43 29 -43 34 0 9 74 96 93 110 14 10 16 97 3 113 -6 8 -38 37 -72
63 -43 35 -59 53 -55 65 6 15 20 32 115 136 l39 43 -39 40 c-36 38 -38 41 -21
54 11 7 14 16 8 19 -5 4 -14 -2 -20 -11 -9 -17 -12 -16 -38 11 -23 23 -24 27
-8 22 16 -6 30 4 67 46 l48 52 -58 59 c-200 206 -199 205 -218 183z m-58 -163
c-4 -4 -14 1 -22 11 -22 31 -17 43 8 19 12 -13 18 -26 14 -30z m50 -51 c10
-10 28 -31 39 -45 11 -15 27 -27 37 -27 32 0 27 -16 -20 -62 -26 -25 -69 -69
-96 -97 l-49 -51 77 -76 78 -76 -24 -26 c-45 -52 -62 -64 -66 -50 -3 7 -31 84
-63 171 -40 109 -55 162 -48 170 5 7 30 34 54 61 49 53 49 54 36 90 -7 17 -7
26 2 30 20 8 22 7 43 -12z m-366 -91 c0 -5 12 -15 28 -22 101 -51 164 -94 174
-118 19 -48 66 -175 83 -226 10 -27 22 -58 26 -68 5 -9 7 -46 4 -81 l-6 -64
40 -29 c58 -41 58 -64 0 -126 -52 -55 -56 -66 -37 -85 7 -7 8 -12 2 -12 -11 0
-39 41 -36 53 1 4 -2 7 -7 7 -5 0 -14 14 -21 30 -7 17 -16 30 -21 30 -5 0 -9
7 -9 15 0 8 -4 15 -10 15 -5 0 -10 6 -10 13 0 7 -9 23 -20 35 -12 12 -18 22
-14 22 3 0 -5 15 -20 34 -14 19 -26 39 -26 45 0 6 -4 11 -10 11 -5 0 -10 7
-10 15 0 8 -4 15 -10 15 -5 0 -10 9 -10 21 0 11 -4 18 -8 15 -4 -2 -14 10 -22
27 -7 18 -22 40 -33 50 -11 9 -17 17 -12 17 4 0 -4 15 -19 34 -14 19 -26 39
-26 43 0 5 -8 18 -17 29 -10 11 -26 34 -36 52 l-18 32 38 41 c53 57 56 65 37
95 -15 22 -15 27 -3 35 18 11 39 12 39 0z m-325 -151 c10 -11 26 -20 35 -20 9
0 20 -3 23 -7 17 -16 105 -40 120 -32 15 9 36 -17 75 -93 8 -16 18 -28 23 -28
5 0 9 -7 9 -15 0 -8 5 -15 10 -15 6 0 10 -5 10 -10 0 -6 18 -38 40 -71 22 -33
40 -65 40 -70 0 -5 5 -9 10 -9 6 0 10 -4 10 -10 0 -9 39 -72 60 -97 5 -7 17
-28 27 -47 9 -20 20 -36 25 -36 4 0 8 -7 8 -16 0 -9 5 -12 12 -8 6 4 8 3 4 -4
-3 -6 -1 -16 6 -24 7 -7 20 -26 28 -43 8 -16 23 -39 32 -49 10 -11 24 -32 30
-48 7 -15 16 -28 20 -28 5 0 8 -7 8 -15 0 -8 5 -15 10 -15 21 0 9 -28 -30 -71
-22 -24 -40 -47 -40 -52 0 -4 16 -32 37 -63 27 -41 33 -58 25 -66 -8 -8 -13
-7 -18 5 -3 9 -11 14 -17 10 -5 -3 -7 -2 -4 4 8 12 -42 75 -54 67 -5 -3 -9 2
-9 11 0 9 -6 22 -12 29 -7 7 -33 37 -58 67 -25 30 -59 69 -76 87 -18 17 -30
32 -28 32 2 0 -4 9 -13 19 -10 10 -32 36 -50 58 -76 93 -116 139 -131 151 -9
6 -13 12 -8 12 4 0 -5 11 -19 25 -14 14 -25 30 -25 36 0 6 -4 7 -10 4 -5 -3
-10 1 -10 9 0 9 -9 21 -20 28 -11 7 -20 17 -20 23 0 6 -8 18 -17 26 -24 21
-57 61 -79 94 -9 14 -23 24 -30 21 -7 -3 -11 0 -8 7 2 7 -7 24 -21 39 -14 15
-25 31 -25 35 0 4 18 28 39 52 l40 45 -20 28 c-17 23 -18 30 -7 42 17 20 22
20 43 -4z m-6263 -212 c79 -85 79 -85 142 -25 18 18 47 44 64 59 l32 28 32
-36 c30 -32 63 -80 43 -62 -4 4 -23 1 -42 -7 -19 -8 -39 -13 -43 -10 -5 3 -11
1 -14 -4 -3 -4 -20 -12 -38 -16 -37 -9 -47 -12 -50 -15 -2 -1 -12 -3 -23 -5
-11 -2 -46 -11 -79 -21 l-58 -17 -59 61 c-54 56 -62 61 -85 52 -59 -23 -51 24
12 70 32 23 44 38 44 57 l0 26 26 -29 c14 -16 57 -64 96 -106z m5983 15 c16
-22 119 -27 136 -7 9 11 15 10 35 -2 13 -9 21 -20 18 -25 -3 -5 2 -9 11 -9 9
0 13 -4 10 -10 -3 -5 3 -15 15 -22 11 -7 20 -19 20 -26 0 -7 5 -10 10 -7 6 3
10 1 10 -5 0 -6 5 -8 12 -4 7 4 8 3 4 -5 -5 -7 3 -22 18 -36 14 -13 26 -27 26
-30 0 -14 54 -64 63 -58 6 4 7 1 2 -6 -8 -14 33 -63 47 -55 5 3 8 2 7 -3 -4
-21 2 -44 9 -39 5 3 15 -6 22 -19 7 -13 17 -22 22 -19 4 3 8 -2 8 -10 0 -18
69 -92 82 -88 5 1 7 -2 4 -7 -6 -9 7 -26 63 -89 13 -15 35 -42 48 -59 14 -18
29 -30 34 -27 5 3 9 -3 9 -13 0 -10 17 -36 38 -58 21 -22 49 -55 61 -73 18
-26 26 -31 33 -20 6 9 7 6 3 -9 -4 -16 -2 -23 8 -23 8 0 17 -10 21 -22 4 -17
-3 -32 -29 -58 -40 -41 -43 -56 -14 -81 27 -23 21 -54 -11 -55 -40 -2 -41 -3
-31 -22 14 -26 -3 -47 -36 -44 -22 2 -33 -5 -53 -33 -14 -19 -30 -36 -37 -39
-15 -6 -85 49 -75 59 4 5 2 5 -4 2 -6 -3 -24 7 -39 23 -16 17 -33 30 -37 30
-5 0 -20 11 -33 24 -14 14 -42 37 -62 53 -21 15 -40 30 -43 33 -32 33 -112 90
-120 85 -5 -3 -7 0 -4 9 3 9 -2 17 -15 21 -12 3 -21 11 -21 16 0 5 -7 12 -17
16 -9 3 -32 22 -51 40 -19 19 -41 32 -48 29 -8 -3 -13 -2 -13 2 3 21 -4 31
-36 48 -19 10 -35 24 -35 31 0 7 -7 13 -15 13 -8 0 -15 5 -15 10 0 6 -6 10
-14 10 -8 0 -17 7 -20 16 -3 8 -10 13 -15 9 -5 -3 -12 4 -16 15 -3 11 -11 20
-16 20 -6 0 -16 6 -23 13 -7 6 -30 26 -51 42 -21 17 -44 36 -52 43 -7 7 -13
10 -13 7 0 -4 -14 7 -30 25 -27 29 -29 35 -16 49 7 9 13 27 11 41 -1 14 -3 37
-4 52 0 15 -10 35 -20 45 -17 16 -18 20 -6 37 14 18 16 18 40 2 26 -17 27 -17
49 6 64 67 52 70 169 -46 58 -57 108 -102 111 -99 3 4 6 1 6 -6 0 -7 16 -28
35 -47 19 -18 35 -31 35 -28 0 2 6 -1 14 -8 8 -7 12 -16 9 -20 -2 -5 2 -8 9
-8 7 0 22 -14 33 -30 11 -16 24 -30 28 -30 12 0 57 -47 57 -60 0 -5 4 -10 9
-10 5 0 47 -37 93 -82 47 -46 104 -100 126 -120 23 -21 39 -38 35 -38 -5 0 0
-5 10 -11 9 -5 21 -8 26 -5 5 4 7 -3 4 -14 -3 -11 0 -20 6 -20 6 0 23 -13 38
-30 14 -16 32 -30 40 -30 7 0 12 -4 10 -9 -1 -4 17 -27 41 -50 35 -34 46 -40
57 -31 12 10 5 21 -42 66 -31 29 -60 51 -65 48 -5 -3 -7 0 -6 8 2 7 -4 12 -12
10 -8 -2 -12 0 -7 4 10 10 -23 45 -36 37 -5 -3 -7 -1 -4 4 9 14 -81 95 -95 87
-7 -5 -8 -2 -3 5 4 8 -1 21 -14 32 -12 11 -21 16 -22 12 0 -4 -5 3 -10 16 -6
15 -14 21 -25 17 -8 -3 -12 -2 -9 4 7 12 -124 142 -136 134 -5 -3 -6 2 -3 10
3 9 2 16 -4 16 -5 0 -59 50 -120 110 -61 61 -116 110 -123 110 -7 0 -10 3 -6
6 8 8 -18 34 -33 34 -6 0 -9 4 -5 9 3 5 -4 12 -15 16 -11 3 -20 13 -20 21 0 8
-6 14 -13 14 -7 0 -18 9 -25 20 -7 12 -18 18 -25 14 -7 -4 -9 -3 -4 1 4 5 -2
19 -14 31 l-22 23 43 48 c41 47 41 48 21 62 -26 16 -27 30 -3 47 22 17 22 17
37 -3z m-5291 -111 c14 3 23 1 20 -3 -3 -5 -12 -9 -20 -9 -8 0 -14 -4 -14 -10
0 -5 -7 -10 -15 -10 -8 0 -15 -5 -15 -11 0 -5 -4 -8 -8 -5 -5 3 -20 -2 -33
-12 -13 -9 -29 -17 -36 -18 -7 -1 -26 -12 -42 -23 -16 -12 -34 -21 -40 -21 -6
0 -11 -4 -11 -10 0 -5 -8 -10 -18 -10 -10 0 -28 -9 -40 -20 -12 -12 -22 -18
-22 -15 0 3 -18 -6 -40 -20 -22 -14 -40 -23 -40 -19 0 3 -13 -4 -29 -15 -16
-12 -34 -21 -40 -21 -6 0 -11 -5 -11 -11 0 -5 -4 -7 -10 -4 -5 3 -10 1 -10 -5
0 -6 -4 -9 -9 -5 -5 3 -15 0 -23 -7 -7 -7 -26 -20 -43 -28 -16 -8 -33 -19 -37
-25 -4 -5 -8 -6 -8 -2 0 5 -14 -1 -30 -13 -35 -25 -38 -23 -102 44 -36 39 -37
39 -63 22 -27 -18 -45 -14 -45 9 0 12 54 100 71 115 3 3 15 22 28 43 25 40 54
64 86 70 11 2 54 14 95 26 41 13 80 24 85 25 6 2 33 9 60 18 49 14 91 17 111
6 24 -13 76 1 98 27 13 15 34 33 47 40 23 12 27 9 76 -42 42 -45 57 -55 77
-51z m331 -18 c33 20 64 32 73 28 11 -4 12 -7 4 -10 -7 -2 -10 -8 -6 -13 3 -5
-1 -9 -9 -9 -8 0 -24 -9 -37 -20 -13 -11 -26 -20 -29 -20 -3 0 -19 -11 -34
-25 -15 -14 -27 -23 -27 -20 0 2 -10 -4 -22 -15 -13 -10 -39 -30 -58 -43 -19
-13 -34 -29 -32 -36 1 -7 -2 -9 -9 -6 -6 4 -28 -7 -49 -24 -21 -17 -44 -31
-49 -31 -6 0 -11 -7 -11 -16 0 -8 -4 -13 -9 -9 -5 3 -21 -6 -35 -20 -14 -14
-26 -23 -26 -20 0 5 -12 -3 -45 -32 -7 -7 -18 -13 -24 -13 -6 0 -11 -7 -11
-15 0 -8 -3 -14 -7 -13 -16 3 -63 -26 -63 -39 0 -8 -4 -12 -9 -9 -8 5 -25 -7
-71 -46 -8 -8 -27 -20 -42 -27 -16 -8 -28 -18 -28 -23 0 -4 -6 -8 -14 -8 -8 0
-17 -7 -20 -16 -3 -8 -11 -12 -17 -8 -7 4 -10 3 -7 -2 7 -10 -11 -27 -31 -32
-7 -1 -20 -9 -28 -17 -8 -9 -23 -20 -34 -26 -11 -5 -17 -14 -14 -19 3 -5 0
-12 -6 -16 -8 -4 -9 -3 -5 4 9 16 -7 15 -22 0 -9 -9 -23 -2 -60 34 l-47 47
-25 -19 c-32 -25 -37 -25 -45 1 -4 12 -1 27 9 38 25 28 77 151 72 169 -5 13
13 27 74 60 44 24 78 47 75 52 -3 4 3 6 13 4 9 -3 27 4 40 16 12 11 22 18 22
15 0 -6 99 44 110 55 3 3 28 16 55 30 28 14 52 27 55 30 3 3 31 18 63 34 31
16 57 32 57 37 0 5 7 6 15 3 8 -4 15 -1 15 6 0 6 5 8 10 5 6 -3 10 -2 10 3 0
5 8 12 18 15 9 4 53 26 97 49 l80 44 46 -49 46 -48 58 35z m153 -54 l37 -41
36 25 c31 21 39 23 54 12 15 -11 14 -15 -19 -47 -41 -39 -52 -48 -86 -72 -13
-9 -20 -17 -15 -17 12 0 -26 -34 -48 -43 -11 -4 -15 -12 -11 -18 4 -7 3 -9 -3
-6 -5 3 -16 -2 -25 -11 -8 -9 -36 -34 -61 -56 -26 -21 -44 -43 -41 -47 3 -5 2
-9 -3 -8 -20 3 -34 -2 -28 -11 3 -5 2 -10 -3 -10 -5 0 -22 -11 -38 -25 -16
-14 -32 -25 -36 -25 -4 0 -10 -9 -13 -21 -4 -11 -9 -18 -12 -16 -6 7 -49 -36
-45 -46 1 -4 -1 -6 -5 -6 -21 3 -24 -3 -12 -18 13 -16 12 -17 -3 -5 -14 11
-23 6 -68 -36 -36 -34 -50 -54 -45 -63 6 -11 5 -12 -5 -2 -11 10 -22 4 -57
-32 -24 -25 -43 -43 -43 -40 0 3 -9 -3 -19 -12 -11 -9 -18 -20 -15 -25 3 -5 1
-7 -4 -6 -6 2 -39 -23 -74 -54 -35 -31 -83 -74 -107 -96 l-43 -39 -43 46 -44
46 -24 -23 -24 -22 -18 20 c-18 19 -17 21 3 38 28 25 40 122 18 145 -15 14
-12 19 29 47 25 17 45 36 45 41 0 6 4 8 8 5 5 -3 20 5 35 17 14 12 58 44 97
71 38 27 70 53 70 58 0 4 6 8 13 8 7 0 27 14 45 30 18 17 35 30 37 30 10 0 95
65 95 73 0 4 5 5 10 2 6 -3 10 -1 10 4 0 6 7 11 15 11 8 0 15 7 15 16 0 8 4
13 9 9 5 -3 21 6 35 20 14 14 26 22 26 18 0 -4 5 0 11 10 5 9 17 17 24 17 8 0
15 5 15 10 0 6 7 10 15 10 8 0 15 3 15 8 0 4 18 18 40 32 22 14 40 28 40 32 0
5 7 8 15 8 7 0 18 6 22 14 4 7 18 18 31 25 12 7 20 17 16 23 -5 7 -2 8 6 3 7
-4 15 -3 19 2 11 16 66 52 79 53 8 0 30 -18 50 -40z m186 -69 c13 -11 14 -17
5 -28 -12 -14 -3 -28 46 -78 11 -11 20 -27 20 -35 0 -8 12 -21 28 -28 15 -7
27 -18 27 -23 0 -11 -48 -79 -64 -90 -4 -4 12 -28 38 -53 44 -45 56 -66 38
-66 -5 0 -17 -15 -27 -34 -11 -19 -23 -33 -27 -30 -4 3 -8 0 -8 -6 0 -6 -9
-21 -21 -33 -11 -12 -25 -32 -30 -45 -5 -14 -14 -20 -21 -16 -7 5 -9 0 -6 -14
4 -15 2 -19 -8 -15 -8 3 -14 0 -14 -7 0 -6 -7 -18 -15 -27 -8 -8 -12 -19 -9
-25 4 -6 2 -8 -3 -5 -6 4 -18 -4 -26 -17 -9 -13 -23 -31 -32 -40 -9 -9 -14
-16 -11 -16 3 0 -8 -14 -24 -32 -21 -23 -26 -35 -19 -44 8 -9 5 -11 -10 -7
-12 3 -21 1 -21 -6 0 -10 -9 -22 -58 -79 -13 -15 -29 -39 -37 -53 -8 -15 -21
-29 -30 -32 -8 -4 -15 -16 -15 -27 0 -12 -4 -18 -10 -15 -5 3 -10 3 -10 -2 0
-4 -10 -20 -23 -35 -12 -14 -31 -39 -42 -54 -37 -51 -45 -56 -61 -39 -18 18
-19 18 -42 6 -90 -49 -164 -71 -181 -55 -3 2 5 17 16 33 l21 28 -40 42 -41 42
39 41 c21 22 54 55 72 74 21 20 31 38 26 45 -4 7 -3 10 3 6 12 -8 109 89 106
104 -2 5 0 8 5 7 13 -4 64 51 57 61 -3 6 0 9 8 6 7 -3 19 5 27 19 7 14 18 22
23 19 7 -4 8 1 3 13 -4 10 -4 15 0 11 8 -8 34 11 34 25 0 5 -5 6 -12 2 -7 -4
-8 -3 -4 5 4 6 12 9 17 5 9 -5 69 48 69 62 0 10 28 34 41 34 7 0 10 3 6 6 -3
3 12 22 33 42 22 19 37 39 34 44 -3 4 2 8 10 8 9 0 16 7 16 15 0 8 6 15 13 15
8 0 20 11 27 25 7 13 17 22 22 19 4 -3 8 -1 8 5 0 5 23 33 50 61 28 28 47 56
43 62 -4 7 0 9 10 5 15 -6 22 3 18 26 0 4 2 6 7 6 19 -3 23 2 12 16 -12 14
-18 11 -51 -21 -21 -21 -36 -41 -33 -46 3 -4 0 -8 -6 -8 -6 0 -22 -11 -36 -25
-14 -14 -23 -25 -21 -25 2 0 -34 -39 -80 -87 -46 -49 -97 -102 -113 -119 -17
-17 -30 -37 -30 -43 0 -7 -3 -10 -7 -8 -10 4 -92 -81 -85 -88 3 -3 -2 -5 -11
-5 -9 0 -17 -4 -17 -10 0 -5 -15 -24 -32 -41 -18 -17 -32 -35 -30 -40 1 -5 -4
-9 -10 -9 -7 0 -31 -21 -53 -47 -22 -25 -57 -63 -77 -84 -20 -20 -34 -40 -31
-43 4 -3 -1 -6 -9 -6 -15 0 -33 -26 -30 -42 1 -5 -1 -7 -6 -7 -16 3 -35 -1
-30 -7 3 -3 -5 -17 -17 -30 -22 -24 -25 -25 -48 -9 -28 18 -129 15 -135 -4 -6
-17 -40 -13 -51 7 -7 14 -5 21 10 30 26 16 24 23 -16 62 -19 19 -35 44 -35 54
0 11 2 17 5 14 3 -3 18 6 33 21 30 28 171 156 211 190 13 12 28 21 33 21 5 0
6 5 3 10 -3 6 -2 10 3 10 10 0 64 47 163 141 27 25 49 44 49 41 0 -3 8 5 19
16 10 12 23 22 30 22 6 0 11 5 11 11 0 5 -6 7 -12 3 -8 -4 -10 -3 -5 2 5 5 13
10 18 10 22 3 23 5 9 15 -13 9 -12 10 3 5 12 -4 29 6 52 30 19 20 35 33 35 30
0 -3 21 15 46 39 31 29 44 48 39 57 -6 10 -5 10 5 1 10 -9 20 -5 45 20 17 18
54 52 81 76 27 24 42 40 34 36 -9 -5 -12 -5 -7 1 5 5 13 10 18 10 5 1 14 2 19
3 6 0 10 8 10 17 0 9 5 12 12 8 7 -5 9 -2 6 8 -7 18 23 18 46 -1z m4351 -233
c7 -7 28 -24 46 -38 18 -14 41 -33 51 -42 10 -10 21 -18 24 -18 4 0 14 -8 23
-18 9 -10 36 -33 61 -52 25 -19 52 -42 61 -52 9 -10 22 -18 28 -18 6 0 14 -7
17 -15 3 -8 14 -17 25 -20 10 -4 19 -12 19 -18 0 -14 49 -39 61 -31 5 3 6 -2
3 -10 -3 -9 6 -21 25 -32 17 -10 31 -22 31 -26 0 -4 5 -8 10 -8 6 0 24 -13 41
-30 18 -16 36 -27 42 -23 5 3 7 1 4 -4 -4 -6 10 -23 31 -39 20 -15 39 -32 40
-36 2 -4 8 -8 13 -8 6 0 20 -10 33 -22 28 -28 111 -98 140 -117 12 -8 24 -19
27 -24 4 -5 12 -7 18 -3 7 5 9 1 4 -11 -3 -10 -3 -15 1 -11 5 4 19 -5 33 -18
23 -23 24 -27 10 -41 -14 -14 -20 -12 -62 16 -25 17 -50 31 -54 31 -4 0 -28
-22 -53 -49 -41 -45 -46 -47 -56 -30 -7 11 -17 19 -23 19 -6 0 -23 9 -39 20
-15 11 -31 16 -35 12 -5 -4 -5 -1 -1 5 5 8 -5 19 -28 30 -20 9 -36 20 -36 25
0 4 -6 8 -14 8 -8 0 -16 4 -18 9 -1 5 -9 11 -17 13 -7 2 -27 15 -44 30 -17 15
-34 25 -39 22 -4 -3 -8 -1 -8 5 0 9 -87 68 -122 83 -10 4 -18 11 -18 17 0 8
-37 24 -52 22 -5 -1 -8 6 -8 16 0 9 -3 14 -6 10 -4 -3 -12 -1 -20 6 -33 29
-44 37 -44 32 0 -4 -17 6 -37 23 -49 38 -154 106 -176 115 -18 7 -24 37 -7 37
6 0 10 9 10 20 0 11 -4 20 -8 20 -4 0 -14 17 -21 38 -7 20 -23 51 -35 67 -27
36 -42 63 -31 53 4 -4 14 0 21 10 11 16 13 16 33 -2 21 -19 22 -19 63 22 46
47 45 46 63 30z m-4188 -240 c-13 -24 -34 -59 -45 -79 l-20 -36 48 -50 49 -50
-26 -49 c-14 -27 -29 -51 -32 -54 -4 -3 -20 -31 -36 -62 -17 -32 -34 -58 -38
-58 -5 0 -5 -4 -2 -10 3 -5 1 -10 -5 -10 -6 0 -8 -4 -5 -10 3 -5 2 -10 -3 -10
-9 0 -37 -50 -34 -62 1 -5 -2 -8 -8 -8 -5 0 -10 -7 -10 -15 0 -8 -4 -15 -9
-15 -5 0 -13 -9 -16 -20 -4 -11 -17 -37 -31 -58 -13 -20 -24 -40 -24 -45 0 -4
-9 -17 -20 -29 -11 -12 -20 -27 -20 -34 0 -16 -28 -26 -33 -11 -3 8 -14 5 -35
-10 -17 -13 -33 -23 -36 -23 -2 0 -28 -16 -57 -35 -58 -38 -73 -42 -93 -23
-10 10 -9 16 6 32 18 20 17 21 -26 66 -34 35 -42 48 -33 57 30 30 38 44 31 55
-4 7 -3 8 4 4 12 -7 59 50 54 66 -1 5 2 7 8 3 5 -3 10 -2 10 3 0 4 8 17 18 28
39 43 61 77 56 85 -3 5 -1 8 4 7 10 -3 52 39 52 51 0 3 20 29 45 56 24 28 47
58 50 68 4 9 11 17 17 17 6 0 9 3 6 6 -4 3 1 14 10 23 33 35 52 61 52 73 0 6
3 9 6 5 4 -3 32 29 62 71 31 42 61 82 67 88 5 6 19 23 30 37 31 42 41 15 12
-35z m4093 -89 c3 -3 21 -15 41 -27 28 -17 38 -19 49 -9 12 10 12 9 1 -5 -11
-15 -10 -19 12 -27 14 -5 28 -14 31 -20 4 -6 22 -18 41 -27 19 -9 35 -20 35
-25 0 -5 6 -9 13 -9 6 0 25 -11 41 -25 17 -15 36 -23 45 -20 9 3 12 3 9 -1 -8
-8 14 -34 25 -27 4 2 7 0 7 -5 0 -10 107 -82 121 -82 5 0 9 -5 9 -11 0 -6 7
-8 17 -5 10 4 14 4 11 0 -8 -8 34 -44 51 -44 6 0 11 -5 11 -12 0 -6 3 -9 6 -5
4 3 12 1 19 -6 7 -7 23 -19 35 -27 12 -8 33 -23 45 -32 13 -10 26 -18 29 -18
4 0 17 -9 29 -20 12 -11 27 -18 33 -16 12 5 13 -18 2 -29 -3 -4 -38 10 -77 29
-39 20 -75 36 -80 36 -6 0 -31 -22 -57 -50 l-46 -49 -62 30 c-33 17 -73 37
-87 45 -14 7 -29 11 -33 7 -3 -3 -6 -1 -6 6 0 8 -6 11 -17 7 -10 -4 -14 -4
-10 0 10 10 -162 96 -176 87 -5 -3 -7 -1 -4 4 6 9 -15 24 -33 24 -3 0 -20 9
-37 21 -18 11 -33 16 -33 11 0 -4 -4 -3 -8 2 -4 6 -24 18 -45 28 -30 14 -37
21 -32 37 4 14 -11 42 -54 101 -49 67 -58 85 -50 100 5 11 7 19 3 19 -4 0 -5
3 -2 6 4 3 17 -1 30 -10 23 -15 26 -14 68 29 43 44 52 46 80 14z m-4025 -169
c8 -12 -10 -37 -37 -51 -23 -12 -23 -8 2 21 11 12 17 27 14 31 -3 5 -1 9 5 9
5 0 13 -5 16 -10z m3955 -151 c0 -5 9 -9 20 -9 11 0 20 -3 20 -7 0 -9 49 -33
67 -33 7 0 13 -4 13 -10 0 -5 9 -10 20 -10 11 0 20 -4 20 -10 0 -5 8 -10 19
-10 10 0 24 -7 31 -15 7 -8 16 -12 21 -9 5 3 9 0 9 -6 0 -6 4 -9 9 -6 5 3 20
-3 34 -15 15 -11 28 -19 29 -18 7 3 78 -36 78 -43 0 -5 -9 -4 -21 2 -19 10
-28 4 -84 -56 -64 -67 -64 -67 -107 -60 -34 5 -54 18 -94 57 l-51 51 -36 -32
-36 -31 -34 38 c-19 21 -51 56 -71 78 -25 28 -35 48 -34 68 2 29 3 29 33 18
15 -6 28 1 57 33 21 23 38 44 38 47 0 10 50 -2 50 -12z m-4055 -21 c-4 -18 8
-37 55 -88 47 -49 60 -69 55 -85 -4 -11 -7 -27 -7 -35 -1 -8 -27 -39 -59 -70
l-58 -55 24 -30 c31 -38 31 -46 -2 -70 -14 -11 -31 -25 -37 -30 -6 -6 -32 -25
-57 -43 -41 -30 -48 -32 -75 -21 -16 6 -23 13 -16 16 23 9 12 42 -28 82 -41
40 -48 57 -30 63 6 2 12 13 13 25 0 12 5 19 11 16 5 -4 7 1 3 11 -4 10 -3 15
3 11 6 -3 13 2 17 12 4 10 16 34 28 53 12 19 22 39 23 44 0 5 5 12 10 15 6 3
12 13 14 21 2 8 11 23 20 34 10 10 15 23 12 28 -3 4 -1 8 4 8 4 0 19 19 32 43
38 69 55 86 45 45z m4581 -239 c-4 6 -3 11 2 11 13 0 22 -39 11 -46 -9 -5 -22
5 -49 41 -15 19 -15 19 14 1 16 -10 25 -13 22 -7z m-629 -207 l22 -14 -28 -24
c-33 -28 -38 -29 -54 -11 -15 16 -19 35 -12 57 6 20 34 17 72 -8z m-3677 -52
c26 -37 14 -60 -30 -60 -36 0 -45 31 -18 65 11 14 21 25 23 25 2 0 13 -14 25
-30z m3334 -27 c34 -29 42 -42 35 -55 -7 -13 4 -29 46 -72 30 -30 56 -61 56
-68 1 -7 3 -25 4 -39 3 -19 -10 -40 -51 -84 -30 -33 -54 -64 -54 -70 0 -33 23
-83 46 -100 52 -39 105 -93 96 -99 -6 -3 -15 1 -22 9 -10 13 -14 13 -27 -1
-14 -13 -17 -13 -28 3 -7 10 -11 21 -9 25 3 5 1 8 -5 8 -6 0 -18 16 -27 35 -9
19 -20 32 -25 29 -5 -3 -8 -2 -7 3 4 14 -13 53 -23 53 -6 0 -7 5 -4 10 3 6 1
10 -4 10 -6 0 -11 7 -11 15 0 7 -7 18 -16 23 -9 5 -15 11 -14 13 4 12 -14 38
-23 32 -6 -4 -8 0 -4 10 3 9 -3 26 -16 40 -12 13 -23 31 -25 38 -2 8 -8 16
-13 17 -5 2 -9 11 -9 21 0 9 -9 27 -20 39 -28 30 -25 40 25 96 38 42 42 50 29
63 -27 27 -15 43 27 38 16 -2 49 -21 73 -42z m-366 -81 c28 -19 52 -39 52 -44
0 -4 5 -8 10 -8 6 0 24 -10 40 -22 24 -18 32 -19 45 -8 17 14 33 0 57 -52 7
-16 16 -28 20 -28 5 0 8 -7 8 -15 0 -8 5 -15 10 -15 6 0 10 -7 10 -15 0 -8 3
-15 8 -15 4 0 15 -18 25 -40 9 -22 22 -40 28 -40 5 0 7 -4 4 -10 -3 -5 -1 -10
4 -10 6 0 11 -7 11 -15 0 -8 5 -15 10 -15 6 0 10 -7 10 -15 0 -9 10 -26 23
-39 13 -13 21 -28 19 -34 -2 -7 1 -12 7 -12 6 0 11 -7 11 -15 0 -8 5 -15 11
-15 5 0 8 -4 5 -9 -4 -5 -2 -11 3 -13 4 -1 11 -12 14 -23 5 -14 -5 -33 -33
-64 l-39 -44 36 -56 c40 -63 87 -111 109 -111 8 0 13 -4 9 -10 -3 -6 -15 -5
-30 2 -20 9 -29 8 -42 -4 -22 -19 -53 -20 -46 -1 3 7 0 13 -6 13 -6 0 -11 7
-11 16 0 10 -6 14 -14 11 -10 -4 -13 -1 -10 8 3 8 -4 20 -15 27 -12 7 -21 17
-21 21 0 5 -6 14 -12 22 -7 7 -24 27 -38 45 -14 18 -29 37 -35 44 -5 6 -28 34
-49 61 -22 28 -47 58 -57 67 -9 9 -19 23 -21 30 -4 10 -9 10 -24 -2 -18 -14
-18 -14 -5 3 13 16 13 20 0 28 -8 5 -10 9 -5 9 5 0 -5 14 -23 30 -17 17 -31
33 -31 36 0 11 -82 99 -90 97 -4 -1 -7 5 -6 15 0 9 -5 16 -11 15 -7 -2 -13 6
-13 17 0 11 -7 23 -15 26 -8 4 -15 12 -15 20 0 8 -7 14 -15 14 -25 0 -17 24
25 69 l40 42 -20 22 c-22 23 -26 37 -9 37 5 0 8 4 5 9 -12 18 41 -3 92 -37z
m-2688 -46 c0 -2 -8 -10 -17 -17 -16 -13 -17 -12 -4 4 13 16 21 21 21 13z
m327 -54 c-12 -13 -13 -22 -5 -36 8 -15 7 -21 -6 -28 -8 -5 -17 -7 -19 -6 -2
2 -11 -5 -21 -15 -10 -9 -22 -15 -27 -12 -5 4 -9 2 -9 -2 0 -5 -16 -15 -35
-22 -19 -7 -35 -17 -35 -22 0 -5 -7 -9 -16 -9 -9 0 -29 -9 -45 -21 -16 -11
-29 -17 -29 -12 0 4 -4 3 -8 -2 -4 -6 -37 -26 -74 -44 -37 -19 -65 -37 -63
-41 3 -5 -4 -6 -15 -3 -12 3 -20 0 -20 -8 0 -7 -3 -10 -6 -7 -3 4 -17 0 -31
-7 -25 -13 -29 -12 -73 35 -36 37 -50 46 -58 38 -7 -7 -12 -8 -12 -2 0 5 -4 2
-10 -6 -11 -18 -21 -9 -24 25 -5 37 82 128 108 113 14 -8 25 -3 54 23 20 19
39 37 42 40 10 11 45 26 76 32 28 5 37 0 92 -58 63 -65 68 -67 125 -49 12 3
48 33 80 65 32 33 63 59 69 59 6 0 4 -8 -5 -18z m2089 -60 c42 -30 52 -31 75
-11 l24 20 23 -28 c12 -15 27 -27 33 -25 6 1 8 -2 4 -8 -3 -5 5 -21 19 -35 15
-14 26 -30 26 -35 0 -5 6 -13 13 -17 7 -4 35 -36 61 -70 27 -35 53 -60 59 -56
6 3 7 1 3 -5 -4 -6 9 -29 29 -50 19 -22 35 -46 35 -53 0 -12 2 -12 9 -1 6 10
10 7 15 -12 3 -14 11 -26 16 -26 6 0 10 -7 10 -15 0 -8 7 -15 15 -15 8 0 15
-5 15 -11 0 -20 53 -74 69 -71 11 2 12 0 4 -5 -9 -6 -4 -18 17 -43 17 -19 30
-39 30 -43 0 -5 5 -5 10 -2 6 3 10 0 10 -8 0 -7 13 -27 29 -43 l29 -29 -26
-35 c-14 -19 -30 -36 -34 -38 -15 -7 -8 -24 30 -70 20 -26 39 -49 42 -52 3 -3
11 -12 18 -21 11 -14 9 -16 -13 -11 -17 3 -30 -2 -42 -17 l-18 -22 -43 42
c-23 23 -42 46 -42 51 0 4 -7 8 -17 8 -9 0 -14 3 -11 6 4 3 -15 27 -40 53 -26
27 -56 60 -67 74 -14 19 -23 23 -31 16 -9 -8 -11 -5 -7 9 3 14 -1 22 -16 27
-11 3 -20 9 -18 13 1 4 -18 28 -43 54 -138 141 -240 251 -240 259 0 5 -5 9
-11 9 -11 0 -39 24 -39 34 0 10 -113 121 -122 119 -4 -2 -7 0 -6 5 5 13 -30
54 -41 48 -7 -5 -8 -1 -4 10 4 12 3 15 -5 10 -7 -4 -12 -1 -12 9 0 10 -5 14
-12 9 -7 -4 7 13 30 38 40 41 43 47 30 67 -7 11 -16 21 -20 21 -5 0 -8 7 -8
16 0 8 4 13 9 10 5 -3 14 0 20 8 11 13 44 -3 127 -62z m-1779 10 c-18 -20 -22
-42 -8 -42 5 0 11 -7 15 -15 6 -16 -28 -58 -38 -47 -3 3 -6 0 -6 -6 0 -7 -6
-12 -12 -12 -7 0 -24 -12 -37 -25 -12 -14 -27 -22 -32 -19 -5 3 -9 0 -9 -6 0
-6 -8 -14 -17 -17 -26 -10 -43 -29 -35 -38 4 -5 1 -5 -5 -1 -7 4 -18 2 -25 -4
-7 -6 -22 -18 -33 -26 -11 -9 -14 -12 -6 -8 9 5 12 3 7 -5 -4 -6 -12 -9 -17
-5 -13 8 -40 -16 -32 -29 3 -6 1 -7 -5 -3 -11 6 -69 -27 -84 -49 -4 -5 -13
-10 -20 -10 -7 -1 -12 -7 -10 -14 1 -7 -1 -10 -6 -7 -5 3 -18 -3 -28 -12 -10
-10 -22 -18 -26 -18 -3 1 -21 -10 -40 -24 -18 -14 -67 -49 -108 -79 -41 -29
-78 -59 -82 -65 -4 -6 -8 -7 -8 -2 0 5 -7 3 -15 -4 -14 -11 -22 -7 -55 30
l-39 43 -27 -17 c-19 -13 -29 -15 -37 -7 -6 6 -7 11 -3 11 5 0 3 6 -3 13 -11
14 8 43 72 109 15 16 27 33 27 38 0 6 4 10 10 10 5 0 14 9 20 21 9 15 8 24 -2
36 -10 13 -10 17 0 20 6 3 10 9 7 13 -3 5 0 12 6 16 8 4 9 3 5 -4 -4 -7 -1
-12 8 -12 9 0 16 4 16 9 0 5 16 15 35 22 19 7 35 17 35 21 0 4 3 7 8 6 12 -3
62 25 62 34 0 5 4 7 9 3 5 -3 12 -1 16 5 4 6 10 8 14 6 4 -3 18 4 29 15 12 10
25 20 29 20 20 3 93 42 93 51 0 5 5 6 10 3 6 -3 10 -1 10 5 0 6 4 9 9 5 5 -3
15 1 23 8 7 7 15 14 18 15 3 0 13 4 22 7 12 5 30 -5 60 -34 24 -22 48 -41 55
-41 23 0 126 69 155 105 17 20 33 34 36 31 3 -3 -2 -14 -11 -24z m2608 -2 c3
-5 1 -10 -4 -10 -6 0 -11 5 -11 10 0 6 2 10 4 10 3 0 8 -4 11 -10z m-2344 -99
c-9 -17 -8 -22 9 -31 19 -10 28 -40 13 -40 -5 0 -32 -22 -60 -49 -29 -26 -53
-46 -53 -43 0 2 -7 -1 -15 -8 -8 -7 -12 -17 -8 -23 3 -5 1 -7 -4 -4 -14 9 -65
-32 -57 -45 4 -6 2 -8 -3 -5 -12 8 -59 -31 -55 -45 1 -5 -2 -7 -7 -4 -5 4 -24
-7 -41 -24 -17 -16 -34 -30 -38 -30 -3 0 -17 -12 -29 -27 -13 -14 -23 -22 -23
-18 0 4 -13 -6 -30 -23 -16 -18 -30 -30 -30 -27 0 4 -34 -23 -64 -50 -6 -6
-34 -29 -61 -51 -105 -82 -145 -120 -137 -129 4 -5 1 -5 -6 -1 -9 5 -24 -1
-40 -16 -15 -14 -38 -32 -52 -42 -14 -9 -24 -19 -22 -21 1 -3 -1 -5 -5 -6 -5
0 -12 -7 -16 -15 -4 -8 -13 -14 -18 -14 -6 0 -18 -7 -26 -16 -15 -15 -20 -13
-54 25 l-37 40 -28 -21 c-26 -21 -27 -21 -40 -3 -17 23 -17 30 -1 47 21 22 97
133 97 143 0 4 -7 16 -14 24 -18 20 -13 28 41 65 24 16 40 33 36 39 -3 6 -1 7
6 3 7 -5 30 6 56 26 23 18 53 40 65 48 12 8 29 21 36 28 8 7 14 11 14 8 0 -3
9 2 19 12 31 27 45 38 56 41 6 2 9 7 7 13 -1 5 2 7 7 3 6 -3 18 3 28 14 9 11
20 18 25 15 4 -3 11 2 14 10 3 9 11 16 16 16 17 0 58 37 50 45 -4 5 -1 5 5 1
12 -6 93 47 101 67 2 4 8 7 14 7 5 0 16 6 23 13 33 29 45 37 45 32 0 -3 10 5
23 17 29 32 49 29 86 -9 17 -18 34 -33 38 -33 8 0 112 70 132 88 18 18 25 8
12 -17z m1217 -62 c39 -11 44 -11 63 9 17 18 23 20 39 9 11 -6 20 -18 20 -25
0 -7 3 -11 8 -9 4 3 13 -1 20 -9 7 -8 10 -14 8 -14 -3 0 19 -25 49 -55 29 -30
59 -55 65 -55 6 0 9 -4 5 -9 -3 -5 5 -18 18 -28 13 -10 26 -26 30 -37 4 -11
13 -16 22 -12 9 3 15 0 15 -10 0 -18 66 -85 75 -76 4 4 5 2 3 -4 -3 -12 77
-104 92 -104 6 0 10 -7 10 -16 0 -8 5 -12 10 -9 6 3 10 1 10 -5 0 -6 20 -32
45 -58 226 -235 290 -302 285 -302 -3 0 2 -5 10 -10 10 -6 11 -13 5 -17 -6 -5
-22 -23 -37 -41 l-27 -33 35 -36 c33 -33 34 -37 17 -46 -10 -6 -28 -21 -41
-34 l-22 -24 -39 39 c-22 22 -42 38 -44 35 -3 -2 -8 5 -12 16 -3 12 -10 21
-15 21 -5 0 -35 26 -66 58 -32 31 -61 56 -66 55 -4 -2 -8 2 -8 8 0 17 -41 50
-53 42 -6 -3 -7 -1 -3 5 4 6 -3 19 -14 29 -12 10 -68 63 -125 118 -57 55 -113
107 -124 115 -12 8 -21 20 -21 27 0 6 -9 15 -20 18 -11 3 -20 11 -20 16 0 6
-4 7 -10 4 -5 -3 -10 -1 -10 5 0 10 -52 64 -151 155 -18 17 -36 29 -41 28 -4
-2 -7 3 -5 10 1 6 -4 11 -11 9 -8 -1 -11 2 -7 7 3 6 -7 17 -22 25 -15 8 -24
15 -20 16 5 0 1 7 -7 16 -9 8 -21 12 -27 8 -8 -5 -9 -3 -4 5 4 8 -1 18 -14 27
-28 20 -26 35 9 70 35 35 36 41 9 63 l-22 18 23 21 c23 22 24 22 44 3 12 -11
40 -25 64 -32z m-1115 -64 l32 -35 40 34 c22 19 43 32 47 30 5 -3 6 -9 3 -14
-3 -4 6 -19 20 -31 28 -27 32 -44 10 -53 -8 -3 -15 -13 -15 -22 0 -10 -2 -15
-5 -12 -9 8 -85 -63 -79 -74 3 -5 0 -7 -8 -6 -7 2 -12 -5 -11 -16 1 -13 -2
-15 -10 -7 -7 7 -19 1 -42 -22 -18 -17 -60 -57 -95 -87 -34 -30 -87 -79 -117
-107 -30 -29 -56 -53 -57 -53 -12 0 -100 -94 -98 -103 2 -7 0 -9 -4 -5 -12 12
-33 -12 -27 -30 4 -14 3 -14 -5 -3 -9 12 -13 12 -26 2 -9 -7 -13 -17 -10 -22
3 -5 -3 -6 -13 -2 -10 3 -15 3 -11 -2 4 -4 -10 -21 -30 -39 -41 -34 -99 -87
-170 -153 -24 -24 -49 -43 -54 -43 -6 0 -7 -7 -4 -16 3 -8 2 -12 -4 -9 -5 3
-23 -8 -40 -25 -17 -16 -35 -30 -41 -30 -6 0 -7 -5 -3 -11 13 -22 -32 9 -51
35 -20 26 -50 35 -57 16 -3 -11 -48 -23 -46 -12 1 4 -2 14 -6 23 -5 11 1 26
18 44 14 15 23 31 20 36 -3 5 0 9 7 9 7 0 9 3 6 6 -3 4 -2 14 3 24 7 13 4 22
-10 35 -20 18 -27 45 -12 45 9 0 56 38 108 87 19 17 34 29 34 27 0 -4 40 28
66 54 7 6 18 12 24 12 6 0 9 4 5 9 -3 5 4 12 15 16 11 3 20 10 20 14 0 4 21
23 47 42 58 41 89 71 85 82 -1 5 3 5 9 1 6 -3 14 -3 18 2 3 5 31 29 61 54 30
25 69 57 85 72 17 16 34 28 38 28 5 0 5 5 1 12 -4 7 -3 8 4 4 13 -8 59 34 54
49 -2 5 0 7 4 3 10 -11 119 73 119 92 0 5 4 12 9 17 5 5 6 3 2 -4 -15 -27 9
-12 70 45 33 29 40 28 77 -13z m233 -116 c18 -19 35 -28 48 -25 17 4 16 3 -3
-18 -28 -30 -27 -34 15 -73 20 -18 31 -33 25 -33 -7 0 -10 -3 -8 -7 2 -5 -18
-29 -45 -55 -26 -25 -48 -43 -48 -40 0 3 -6 -3 -14 -13 -8 -11 -12 -24 -9 -29
4 -5 1 -6 -5 -2 -7 4 -12 2 -12 -4 0 -6 -4 -8 -10 -5 -5 3 -10 2 -10 -3 0 -5
-15 -24 -34 -43 -19 -18 -33 -36 -30 -40 2 -4 -1 -11 -7 -15 -8 -4 -9 -3 -5 4
4 7 4 12 1 12 -10 0 -35 -28 -35 -39 0 -6 -6 -10 -12 -8 -7 1 -12 -3 -11 -10
2 -6 -6 -15 -17 -18 -11 -4 -18 -11 -15 -16 4 -5 -1 -9 -10 -9 -9 0 -13 -4
-10 -10 3 -5 1 -10 -4 -10 -18 0 -52 -40 -45 -52 4 -7 3 -8 -4 -4 -8 4 -61
-41 -136 -116 -68 -68 -149 -147 -180 -177 -31 -29 -56 -58 -56 -63 0 -5 -4
-6 -10 -3 -5 3 -10 3 -10 -2 -1 -4 -12 -21 -26 -38 -15 -16 -23 -23 -18 -15 4
8 -7 0 -26 -18 l-33 -34 -24 26 c-20 21 -27 24 -49 16 -41 -16 -68 -32 -81
-49 -9 -11 -12 -12 -13 -3 0 7 -4 10 -10 7 -5 -3 -10 -1 -10 5 0 7 -7 9 -16 6
-17 -7 -11 8 18 40 19 21 18 21 -12 54 -16 17 -30 37 -30 43 0 8 108 117 117
117 1 0 13 10 26 23 57 55 179 162 188 165 5 2 9 11 9 20 0 8 3 13 6 9 4 -3
28 16 55 42 27 27 49 47 49 45 0 -2 14 9 31 25 17 17 28 35 24 40 -3 6 0 8 9
5 9 -3 36 15 71 50 31 31 60 56 65 56 5 0 12 9 15 21 4 11 9 18 12 15 3 -2 22
12 43 32 22 20 64 60 95 87 92 82 123 113 116 120 -3 4 -1 6 4 5 22 -5 35 1
35 14 0 13 12 23 31 25 3 1 18 -13 35 -30z m736 6 c11 -14 24 -23 29 -20 5 4
9 -1 9 -9 0 -8 12 -22 28 -30 15 -8 23 -15 18 -16 -4 0 13 -20 40 -44 26 -25
53 -42 59 -39 5 4 7 2 2 -2 -9 -11 43 -66 55 -59 5 3 7 2 6 -3 -4 -13 171
-183 185 -179 7 1 8 1 3 -2 -9 -5 152 -162 166 -162 4 0 8 -7 8 -15 0 -9 9
-15 23 -15 13 0 17 -3 11 -8 -9 -5 -8 -11 2 -20 8 -7 14 -9 14 -5 0 4 7 -3 16
-15 8 -12 20 -20 25 -16 5 3 8 1 7 -3 -3 -10 130 -142 136 -136 2 3 7 -4 11
-14 3 -10 26 -34 50 -53 24 -19 44 -40 44 -46 1 -5 -13 -24 -30 -42 -27 -27
-29 -34 -18 -54 10 -20 9 -20 -14 5 -14 15 -30 27 -35 27 -4 0 -21 -16 -36
-35 -16 -19 -31 -35 -35 -35 -3 0 -28 20 -56 45 -27 25 -55 45 -63 45 -7 0
-11 3 -9 8 3 4 -10 18 -29 32 -18 14 -34 31 -34 38 0 7 -4 11 -8 8 -5 -3 -15
4 -22 15 -8 10 -18 19 -22 19 -4 0 -19 11 -33 26 -14 14 -30 22 -35 19 -6 -3
-7 1 -4 9 4 10 -1 19 -12 23 -10 4 -33 21 -50 37 -73 70 -114 107 -121 109 -4
1 -19 14 -34 30 -14 15 -32 27 -38 27 -7 0 -10 4 -6 9 3 5 -3 12 -13 15 -10 4
-25 18 -32 31 -7 14 -15 23 -18 21 -2 -2 -12 3 -21 12 -10 10 -44 40 -77 69
-32 28 -77 68 -99 88 -22 20 -55 50 -74 66 l-33 30 22 24 c26 28 21 53 -20
106 l-29 37 23 21 c20 19 24 20 36 6 18 -22 33 -19 60 15 31 36 46 37 72 5z
m-437 -165 c-3 -5 -12 -10 -18 -10 -7 0 -6 4 3 10 19 12 23 12 15 0z m-154
-46 c17 -18 26 -21 52 -13 17 5 32 7 34 5 2 -2 -23 -32 -56 -67 -63 -67 -69
-79 -48 -101 7 -7 20 -24 29 -37 16 -22 15 -25 -7 -49 -13 -14 -22 -29 -19
-34 3 -4 -3 -5 -13 -1 -10 3 -15 3 -12 0 3 -4 -43 -57 -102 -119 -60 -61 -106
-115 -103 -120 3 -5 1 -7 -4 -6 -11 4 -82 -69 -74 -76 3 -3 -2 -6 -12 -6 -9 0
-20 -8 -23 -17 -4 -10 -20 -28 -35 -41 -15 -13 -25 -29 -21 -34 3 -7 1 -8 -5
-4 -7 4 -12 2 -12 -4 0 -6 -4 -8 -10 -5 -5 3 -10 2 -10 -3 0 -9 -89 -107 -171
-188 l-32 -32 -24 26 -23 25 -73 -48 c-68 -46 -118 -63 -114 -40 1 5 -5 9 -13
7 -13 -2 -13 -1 0 10 41 35 43 46 15 75 -29 31 -50 65 -38 61 12 -4 123 104
117 114 -3 5 0 7 8 6 8 -2 12 5 10 17 -2 13 0 16 5 8 12 -16 38 1 28 18 -6 9
-3 11 8 6 15 -6 22 3 18 25 0 4 7 4 16 1 13 -5 15 -2 11 14 -4 16 -1 19 11 16
11 -3 22 5 31 21 7 14 15 24 17 22 7 -6 418 405 415 416 -1 5 2 7 7 4 11 -7
62 40 53 48 -3 3 2 6 12 6 9 0 15 4 11 9 -3 5 4 12 15 16 11 4 18 11 15 16 -4
5 -2 9 4 9 12 0 61 47 61 59 0 16 30 7 51 -15z m427 -54 c7 -12 20 -19 30 -18
11 2 16 -3 14 -14 -2 -10 2 -18 8 -18 6 0 24 -12 39 -27 45 -43 65 -58 73 -55
5 1 7 -1 6 -5 -3 -9 60 -73 70 -73 4 0 13 -9 20 -20 7 -11 19 -20 28 -20 8 0
12 -4 9 -10 -3 -5 -2 -10 4 -10 5 0 25 -15 43 -32 64 -61 113 -104 120 -106 4
-1 23 -17 41 -35 99 -94 117 -108 128 -101 8 5 9 3 4 -5 -7 -13 32 -48 48 -43
5 1 6 -1 3 -6 -6 -10 72 -78 85 -75 5 2 8 -1 6 -5 -1 -4 21 -29 48 -55 36 -33
56 -45 70 -41 16 4 17 3 5 -5 -13 -9 -13 -12 -1 -20 11 -7 10 -15 -9 -41 -20
-28 -21 -35 -10 -56 16 -29 8 -41 -15 -23 -33 28 -41 35 -82 67 l-42 33 -32
-35 c-36 -41 -49 -44 -74 -16 -10 11 -24 20 -32 20 -8 0 -11 5 -8 10 6 9 -8
14 -28 11 -5 -1 -6 2 -4 6 3 5 -1 14 -9 21 -8 7 -14 11 -14 8 0 -3 -24 17 -52
44 -29 28 -56 50 -59 50 -3 0 -28 20 -55 45 -34 32 -50 41 -56 32 -6 -9 -8 -8
-8 4 0 9 -14 27 -31 40 -33 26 -84 69 -110 94 -9 8 -18 15 -22 15 -3 0 -18 12
-34 28 -16 15 -46 41 -68 58 -38 30 -39 32 -26 58 13 24 13 28 -11 54 -159
167 -152 150 -89 217 28 29 51 59 51 64 0 18 14 13 28 -9z m-330 -249 c37 -33
39 -42 12 -66 -18 -16 -20 -16 -46 4 l-27 21 -27 -30 c-15 -17 -46 -51 -69
-75 -22 -24 -41 -46 -41 -48 0 -2 27 -33 60 -68 33 -35 60 -72 60 -82 0 -10
-4 -16 -8 -13 -4 2 -17 -9 -27 -25 -11 -16 -23 -29 -27 -29 -5 0 -8 -4 -8 -10
0 -5 -15 -24 -32 -43 -89 -92 -110 -118 -104 -133 3 -8 2 -13 -3 -9 -5 3 -16
2 -25 -1 -14 -5 -14 -9 -4 -22 9 -11 10 -14 1 -9 -16 10 -56 -30 -47 -45 4 -7
3 -8 -4 -4 -7 4 -12 2 -12 -5 0 -7 -3 -10 -6 -6 -4 3 -15 -4 -24 -16 l-18 -22
-26 24 -25 23 -53 -43 c-29 -24 -61 -52 -72 -61 -22 -20 -53 -23 -76 -8 -12 7
-11 12 5 30 18 20 18 21 -13 53 -32 33 -41 57 -21 57 6 0 8 7 5 16 -3 8 -2 13
3 10 13 -8 44 31 35 45 -4 8 -3 10 5 5 15 -10 43 13 34 27 -4 6 -1 7 7 2 10
-6 12 -4 7 9 -4 11 -3 15 4 11 11 -7 59 39 59 56 0 6 4 7 10 4 5 -3 15 5 21
19 7 14 15 24 18 22 3 -2 17 11 31 30 14 18 30 34 36 34 13 0 29 29 25 45 -2
6 0 7 4 4 7 -8 75 57 75 71 0 6 7 10 16 10 10 0 14 6 10 15 -3 8 -2 14 2 14
26 -4 34 1 22 16 -11 13 -10 14 5 9 13 -5 16 -4 11 5 -4 6 -4 11 1 10 17 -3
36 1 31 7 -4 3 20 31 53 63 32 32 59 64 59 70 0 7 4 10 8 7 4 -2 17 9 27 25
25 36 41 36 83 0z m342 -152 c0 -5 8 -9 17 -9 9 0 13 -3 10 -6 -10 -10 42 -46
54 -38 7 4 9 3 6 -3 -7 -12 71 -86 82 -78 5 2 14 -7 21 -20 7 -14 21 -27 32
-31 10 -3 18 -10 18 -16 0 -6 2 -9 5 -6 3 3 24 -12 46 -33 23 -21 47 -36 53
-32 6 3 8 3 4 -2 -10 -10 31 -47 44 -39 4 3 7 0 6 -8 -2 -8 6 -12 22 -10 14 1
20 -1 13 -6 -13 -8 1 -32 28 -48 20 -11 94 -71 125 -101 13 -13 28 -23 34 -23
15 0 12 -15 -10 -43 -24 -31 -25 -35 -3 -59 38 -42 -15 -34 -62 10 -16 15 -53
44 -80 64 l-51 36 -38 -40 -39 -40 -46 33 c-25 18 -60 44 -77 58 -17 14 -41
34 -53 44 -13 10 -31 19 -41 20 -10 1 -17 4 -14 8 5 8 -35 49 -47 49 -5 0 -19
10 -33 23 -25 23 -25 24 -6 40 11 9 20 21 20 25 0 5 -33 43 -73 85 -59 61 -78
75 -95 70 -36 -9 -41 26 -7 50 15 11 43 37 62 58 24 25 40 35 54 32 10 -3 19
-9 19 -14z m-374 -217 c15 -9 23 -71 10 -75 -13 -4 -56 16 -56 27 0 5 -8 3
-17 -4 -10 -7 -4 1 14 18 17 17 29 33 26 36 -9 9 10 7 23 -2z m69 -51 c3 -5 1
-12 -5 -16 -5 -3 -10 1 -10 9 0 18 6 21 15 7z m-153 -28 c-6 -2 -10 -9 -7 -13
3 -5 1 -11 -4 -14 -7 -5 -8 11 -2 32 1 1 7 2 14 1 9 0 9 -2 -1 -6z m480 -98
c4 -5 8 -6 8 -2 0 9 22 -8 52 -40 12 -12 25 -20 30 -17 4 3 8 1 8 -5 0 -5 21
-25 47 -43 48 -33 53 -36 111 -84 l33 -27 -20 -21 c-12 -12 -21 -27 -21 -34 0
-6 -10 -16 -21 -23 -19 -10 -27 -6 -64 34 -24 24 -57 51 -74 58 -17 8 -31 17
-31 21 0 20 -31 4 -62 -32 l-35 -40 -58 59 c-37 38 -64 57 -74 54 -10 -3 -12
-2 -5 4 7 4 11 20 9 34 -2 21 7 35 48 70 77 68 80 69 97 56 8 -7 18 -16 22
-22z m-499 -110 c87 -84 87 -85 71 -110 -13 -20 -20 -23 -34 -15 -11 6 -22 15
-26 21 -3 6 -9 7 -13 2 -3 -4 -36 -34 -72 -66 l-67 -57 -61 56 c-50 46 -59 60
-49 71 9 11 9 17 -3 24 -12 8 -12 10 1 8 27 -3 40 1 40 11 0 5 18 29 41 52 22
24 48 53 56 66 8 12 18 22 22 22 4 0 47 -38 94 -85z m293 -25 c0 -23 -11 -27
-19 -6 -3 8 -1 17 6 20 7 2 12 5 12 5 1 1 1 -8 1 -19z m-30 -45 c18 -14 18
-15 -15 -43 -31 -28 -35 -29 -52 -14 -18 16 -18 17 8 44 31 32 33 33 59 13z
m-106 -64 c0 -5 -7 -12 -16 -15 -10 -4 -13 -2 -8 6 5 8 2 9 -10 5 -10 -4 -15
-3 -11 3 8 12 45 13 45 1z m-697 -60 c4 -4 -2 -17 -13 -29 l-21 -22 -23 23
c-16 15 -20 26 -14 34 10 12 54 8 71 -6z m1477 -168 c0 -2 -18 -3 -40 -1 -22
1 -40 3 -40 4 0 2 7 10 16 18 14 14 17 14 40 0 13 -9 24 -18 24 -21z m-425 -4
c0 -8 11 -28 23 -44 17 -22 20 -31 10 -34 -21 -6 -47 -32 -44 -44 2 -7 1 -9
-1 -4 -3 4 -9 7 -14 7 -6 0 -8 -4 -5 -9 14 -23 -34 4 -64 35 l-32 34 40 39
c42 38 87 49 87 20z m-785 -66 c25 -22 63 -57 85 -77 l39 -36 24 27 23 27 40
-43 c44 -47 43 -49 -13 -102 -16 -15 -16 -17 4 -45 12 -16 47 -52 77 -79 38
-35 56 -58 55 -73 -4 -59 -2 -57 -24 -37 -19 17 -21 17 -42 -1 -13 -10 -26
-23 -30 -29 -4 -6 -19 2 -36 18 -15 15 -32 24 -37 20 -4 -5 -5 -3 -2 3 6 11
-88 114 -104 114 -5 0 -9 7 -9 16 0 8 -4 12 -10 9 -5 -3 -10 0 -10 7 0 15 -35
48 -50 48 -6 0 -10 6 -10 14 0 14 -27 31 -43 27 -5 -1 -6 3 -2 8 6 11 -29 51
-45 51 -5 0 -10 6 -10 14 0 8 -8 17 -17 21 -17 6 -17 7 1 21 11 8 16 14 11 14
-5 0 1 7 13 16 26 18 29 49 6 58 -8 3 -12 10 -9 16 4 6 9 9 13 6 4 -2 16 0 27
4 30 11 36 9 85 -37z m1144 26 c24 3 25 -1 5 -18 l-23 -18 27 -27 c29 -29 28
-39 -11 -71 -13 -11 -40 -35 -59 -52 -19 -18 -39 -33 -44 -33 -5 0 -9 -4 -9
-9 0 -5 -28 -31 -63 -57 -35 -27 -64 -53 -65 -59 -1 -5 -6 -10 -11 -10 -5 0
-25 -17 -45 -37 -20 -20 -36 -34 -36 -31 0 3 -7 0 -15 -7 -8 -7 -13 -16 -10
-20 13 -22 -28 0 -55 29 -31 32 -32 32 -51 15 -25 -22 -36 -9 -33 38 2 27 18
47 84 110 l81 78 -24 24 -25 25 40 35 c22 20 42 36 46 36 3 0 22 -16 42 -35
l36 -35 34 25 c19 14 55 45 80 69 45 43 80 60 91 43 3 -5 9 -8 13 -8z m-813
-26 c9 -10 19 -33 21 -51 4 -29 2 -33 -14 -28 -11 2 -28 -4 -39 -15 -26 -26
-35 -24 -56 11 -9 17 -21 30 -25 30 -19 0 -5 31 27 59 38 33 53 32 86 -6z
m145 -34 c21 -19 24 -20 47 -5 32 21 53 2 31 -28 -8 -11 -14 -17 -14 -14 0 3
-22 -16 -50 -44 l-50 -49 -24 18 c-34 24 -35 81 -3 117 27 31 34 32 63 5z
m1002 5 c25 -4 25 -13 1 -34 -20 -17 -22 -21 -9 -30 8 -5 11 -10 6 -10 -5 0 1
-8 13 -19 17 -15 19 -23 12 -42 -5 -13 -10 -20 -10 -15 -1 6 -17 -5 -36 -24
-19 -18 -31 -38 -28 -43 3 -6 1 -7 -5 -3 -6 3 -28 -11 -50 -31 -93 -90 -141
-131 -146 -125 -3 3 -6 -2 -6 -10 0 -9 -7 -19 -16 -22 -8 -3 -12 -11 -8 -17 4
-8 3 -9 -5 -5 -6 4 -14 0 -17 -8 -3 -9 -11 -16 -16 -16 -6 0 -28 -18 -49 -40
-22 -22 -41 -40 -44 -40 -9 0 -50 -45 -47 -52 1 -5 -7 -8 -18 -8 -11 0 -19 -4
-18 -9 3 -10 -40 -51 -54 -51 -4 0 -8 -7 -8 -17 0 -9 -3 -14 -6 -10 -4 3 -22
-9 -40 -28 -19 -19 -39 -35 -45 -35 -6 0 -24 14 -39 32 l-28 31 -26 -26 c-24
-24 -30 -25 -27 -4 0 4 -3 7 -7 7 -5 0 -8 13 -8 28 1 22 19 46 81 105 l80 76
-28 29 c-33 35 -33 39 -2 64 14 11 22 24 19 30 -4 7 -2 8 4 4 13 -8 54 29 44
40 -4 4 -2 4 4 1 6 -4 33 14 59 38 26 25 49 45 51 45 12 0 42 35 37 43 -3 6
-2 7 4 4 6 -4 34 16 64 42 30 27 62 56 72 65 23 21 26 21 62 -13 l30 -30 50
45 c95 86 118 103 129 97 6 -4 17 -8 24 -9z m-1808 -74 c41 -38 79 -70 83 -70
4 0 19 11 33 25 14 14 28 25 33 25 4 0 17 -11 29 -25 12 -14 26 -25 32 -25 5
0 10 -7 10 -16 0 -8 4 -13 9 -9 5 3 12 -3 15 -13 4 -10 17 -25 31 -32 13 -7
22 -17 19 -22 -3 -4 2 -8 10 -8 9 0 16 -4 16 -9 0 -13 80 -86 91 -83 5 1 8 -1
8 -5 -3 -21 3 -32 20 -38 11 -3 23 -15 26 -26 4 -10 10 -19 15 -19 5 0 20 -11
33 -24 l25 -24 -30 -37 -30 -36 76 -74 c73 -72 83 -90 68 -128 -7 -16 -9 -16
-31 4 l-23 21 -32 -31 -33 -32 -61 60 c-33 34 -66 61 -72 61 -6 0 -8 5 -4 12
5 8 2 9 -9 5 -9 -3 -16 -3 -16 1 4 24 -3 34 -18 28 -10 -4 -14 -4 -10 0 8 8
-128 144 -143 144 -6 0 -10 7 -10 15 0 8 -5 15 -11 15 -6 0 -25 16 -41 35 -17
19 -35 32 -40 29 -5 -3 -7 -2 -6 3 2 5 -7 19 -19 32 -20 21 -24 22 -40 10 -16
-12 -17 -12 -6 1 8 10 9 21 3 30 -6 8 -10 11 -10 7 0 -12 -30 20 -30 32 0 6
-4 11 -10 11 -5 0 -22 13 -36 30 -15 16 -31 27 -35 24 -5 -3 -9 1 -9 9 0 8
-10 21 -22 29 l-22 14 32 34 c18 18 32 35 32 37 0 2 -11 16 -25 31 l-25 27 27
6 c51 12 58 9 133 -61z m2118 -23 l23 -13 -26 -28 -26 -28 31 -31 c27 -28 29
-33 15 -43 -8 -6 -15 -16 -15 -23 0 -6 -5 -11 -10 -11 -6 0 -33 -22 -60 -50
-28 -27 -50 -48 -50 -46 0 1 -35 -31 -77 -71 -43 -41 -77 -79 -75 -84 1 -6 -2
-8 -8 -4 -13 8 -72 -53 -64 -67 4 -7 2 -8 -5 -4 -7 5 -23 -4 -40 -21 -15 -15
-50 -48 -77 -72 -27 -25 -48 -48 -46 -53 1 -4 -1 -7 -6 -6 -8 3 -70 -50 -149
-130 -29 -29 -53 -51 -53 -48 0 3 -16 -11 -35 -30 -20 -19 -33 -39 -30 -44 3
-5 0 -12 -6 -16 -8 -4 -9 -3 -5 4 12 21 -12 13 -27 -8 -8 -11 -17 -17 -20 -13
-4 3 -7 0 -7 -8 0 -8 5 -20 11 -26 9 -9 24 0 62 38 28 27 55 49 60 49 4 0 5 5
2 10 -3 6 -2 10 3 10 5 0 31 21 58 46 27 25 59 53 72 61 12 8 22 22 22 29 0 8
7 14 16 14 10 0 14 5 10 16 -3 8 -2 13 3 9 12 -7 81 58 81 76 0 12 2 12 9 0 7
-11 10 -9 16 8 4 13 9 20 12 18 6 -7 58 46 55 56 -1 5 2 6 7 3 5 -3 20 6 33
22 12 15 26 29 31 30 20 6 48 45 42 60 -5 13 -3 14 6 5 9 -9 24 1 66 43 30 30
59 54 64 54 5 0 9 7 9 17 0 9 3 14 6 11 3 -3 33 21 67 54 70 68 97 86 97 66 0
-7 11 -21 24 -30 22 -16 25 -16 60 8 20 14 36 28 36 32 0 4 10 13 21 21 18 10
26 11 45 0 30 -15 30 -26 2 -56 -13 -14 -18 -27 -13 -31 6 -4 21 -19 34 -34
22 -25 22 -28 7 -43 -9 -9 -16 -14 -16 -12 0 3 -30 -24 -67 -59 -38 -35 -87
-81 -111 -104 -24 -22 -47 -40 -52 -40 -5 0 -6 -7 -3 -17 4 -11 3 -14 -5 -9
-7 4 -15 1 -18 -8 -3 -9 -10 -13 -15 -10 -5 3 -9 -2 -9 -10 0 -9 -4 -16 -9
-16 -5 0 -23 -14 -40 -31 -17 -17 -31 -29 -31 -27 0 2 -37 -31 -81 -74 -45
-43 -86 -78 -90 -78 -5 0 -9 -8 -9 -17 0 -9 -3 -14 -6 -10 -3 3 -32 -20 -64
-51 -32 -31 -72 -68 -89 -82 -17 -14 -31 -31 -31 -39 0 -8 -3 -12 -6 -8 -3 3
-20 -7 -38 -23 -17 -17 -35 -30 -39 -30 -5 0 -5 -4 -2 -10 3 -5 2 -10 -3 -10
-5 0 -36 -24 -67 -54 -39 -37 -55 -58 -50 -67 6 -11 5 -11 -5 -2 -16 15 -45
-10 -34 -29 4 -7 -7 -2 -24 11 -17 12 -36 29 -41 38 -9 17 -21 14 -57 -12 -19
-14 -21 -13 -32 11 -11 23 -9 28 33 67 25 23 45 46 45 50 0 13 -92 114 -132
146 -16 12 -22 10 -51 -12 -27 -20 -33 -22 -34 -8 0 9 -3 26 -6 39 -5 18 3 31
31 56 77 70 92 85 92 93 0 4 -13 22 -29 38 -23 25 -25 33 -15 43 7 7 18 12 24
12 6 0 9 4 6 9 -3 5 6 16 19 25 14 10 23 22 19 28 -4 6 -3 8 4 4 6 -3 15 2 21
11 6 10 11 14 11 9 0 -10 85 73 85 84 0 5 4 12 9 17 5 5 6 3 2 -4 -14 -26 5
-12 71 51 147 139 177 166 186 166 5 0 3 8 -4 17 -8 9 -9 14 -2 10 14 -9 45 2
37 14 -3 5 2 9 10 9 8 0 20 9 26 20 6 11 17 20 25 20 7 0 17 9 20 20 4 11 11
17 17 14 7 -5 9 -1 5 9 -4 10 -2 16 6 14 7 -1 11 4 9 11 -1 8 2 11 9 6 6 -3
21 5 33 19 l22 26 32 -30 c17 -16 34 -29 37 -29 7 0 68 55 109 97 24 25 42 27
74 10z m-2450 -77 c35 -33 66 -60 70 -60 3 0 24 17 46 38 21 20 36 32 33 26
-4 -6 11 -27 33 -47 22 -19 40 -32 40 -29 0 4 10 -8 21 -25 12 -18 24 -33 28
-33 4 0 47 -38 95 -85 47 -47 91 -85 96 -85 6 0 10 -7 10 -15 0 -8 4 -15 8
-15 4 0 41 -31 81 -70 40 -38 77 -67 82 -64 5 3 6 -2 3 -10 -4 -11 0 -16 10
-16 9 0 16 -7 16 -16 0 -11 5 -14 17 -10 10 4 14 4 10 0 -10 -10 72 -86 85
-78 6 4 8 2 4 -4 -3 -6 1 -17 9 -26 15 -14 14 -18 -2 -41 -10 -13 -21 -25 -25
-25 -23 -1 -1 -33 57 -85 42 -37 64 -64 60 -73 -3 -8 0 -21 6 -28 10 -12 8
-13 -6 -8 -13 5 -16 4 -11 -4 4 -7 1 -12 -8 -12 -9 0 -16 3 -16 8 0 4 -9 13
-19 19 -16 10 -24 8 -50 -18 -38 -35 -44 -36 -61 -4 -7 14 -16 23 -18 20 -3
-2 -15 7 -27 21 -13 15 -28 23 -34 20 -6 -4 -11 -4 -10 1 4 21 -3 32 -21 38
-11 3 -20 13 -20 21 0 8 -4 14 -10 14 -5 0 -30 21 -55 46 -25 25 -45 44 -45
41 0 -3 -20 15 -44 40 -28 28 -49 42 -57 37 -7 -4 -10 -3 -5 4 7 12 -35 62
-53 62 -7 0 -10 4 -7 8 3 5 -6 15 -19 22 -14 7 -25 17 -25 22 0 5 -6 6 -12 2
-7 -4 -10 -3 -5 1 9 11 -42 65 -62 65 -8 0 -12 3 -9 6 6 5 -38 54 -48 54 -3 0
-19 15 -35 33 -25 27 -31 30 -40 17 -9 -12 -10 -12 -5 4 7 20 -30 60 -46 50
-4 -3 -7 0 -6 8 2 7 -3 12 -9 11 -7 -2 -12 1 -10 6 3 11 -80 91 -95 91 -6 0
-8 3 -5 7 4 3 -1 12 -11 19 -16 12 -15 15 11 41 33 36 34 40 0 75 -25 26 -22
34 10 29 4 0 7 4 7 9 0 25 40 5 98 -50z m-290 -135 c12 -11 30 -28 40 -38 16
-16 18 -15 48 18 21 24 37 33 48 29 9 -3 13 -10 10 -15 -3 -5 -1 -9 3 -9 5 0
42 -31 82 -70 41 -38 78 -70 82 -70 5 0 9 -7 9 -15 0 -8 4 -15 9 -15 5 0 30
-20 57 -45 26 -25 51 -45 55 -45 4 0 11 -9 14 -21 4 -11 9 -18 12 -15 3 2 25
-15 49 -40 25 -24 49 -44 54 -44 6 0 10 -7 10 -16 0 -10 5 -14 16 -10 8 3 13
2 11 -2 -3 -4 28 -38 69 -77 41 -38 104 -98 141 -132 36 -35 70 -63 74 -63 4
0 11 -9 14 -20 3 -11 12 -20 20 -20 7 0 20 -11 29 -25 16 -24 44 -26 30 -3 -4
7 -2 8 4 4 6 -4 9 -13 6 -20 -3 -8 1 -20 9 -27 13 -12 12 -17 -8 -35 -37 -34
-35 -46 17 -97 47 -47 48 -50 36 -78 -15 -34 -21 -36 -46 -9 -20 21 -46 19
-56 -5 -3 -8 -14 -18 -24 -24 -17 -9 -28 -2 -76 44 -31 30 -59 55 -62 55 -4 0
-20 16 -37 35 -17 21 -36 34 -44 31 -8 -3 -11 -1 -8 4 8 12 -94 112 -107 104
-4 -3 -5 2 -2 10 3 9 2 16 -4 16 -5 0 -50 38 -98 84 -49 47 -103 98 -121 115
-17 16 -34 27 -37 24 -3 -4 -6 -1 -6 5 0 7 -23 34 -51 60 -93 85 -126 116
-190 177 -34 33 -70 60 -78 60 -10 0 -15 8 -13 19 3 14 -1 17 -13 12 -9 -3
-14 -2 -10 3 5 10 -9 26 -44 51 -27 19 -27 30 4 66 30 35 30 36 5 59 -18 16
-18 18 -2 40 18 25 18 24 70 -20z m1502 -45 c5 0 11 4 14 9 9 14 45 20 53 9 3
-7 1 -8 -5 -4 -9 5 -11 -3 -7 -27 4 -23 1 -39 -8 -48 -8 -8 -42 -40 -76 -72
l-60 -59 -45 42 c-35 33 -44 48 -44 76 0 36 6 42 26 22 9 -9 23 0 59 40 46 51
47 51 65 32 11 -11 23 -20 28 -20z m1600 -85 c29 -31 41 -31 72 0 l25 25 23
-25 c23 -25 23 -25 4 -47 -10 -13 -27 -30 -36 -39 -24 -22 -22 -42 7 -71 l25
-25 -29 -31 c-15 -18 -31 -29 -36 -24 -4 4 -5 -1 -2 -10 3 -10 3 -17 -1 -16
-13 2 -42 -14 -37 -22 3 -4 -5 -10 -16 -13 -13 -4 -18 -10 -13 -18 4 -7 3 -10
-4 -5 -6 3 -20 -6 -31 -20 -12 -15 -21 -23 -21 -19 0 4 -22 -16 -50 -44 -27
-28 -50 -49 -50 -46 0 3 -18 -12 -41 -35 -22 -22 -45 -40 -50 -40 -5 0 -9 -7
-9 -17 0 -9 -3 -13 -6 -10 -4 3 -21 -8 -39 -26 -18 -18 -56 -52 -84 -76 -28
-24 -48 -48 -44 -54 4 -6 1 -7 -6 -2 -13 8 -51 -26 -51 -45 0 -6 -4 -9 -9 -5
-5 3 -18 -6 -29 -20 -11 -13 -23 -21 -27 -17 -5 4 -5 -1 -2 -11 4 -10 3 -16
-2 -13 -9 6 -38 -17 -132 -105 -72 -68 -121 -109 -130 -109 -5 0 -22 14 -40
31 l-31 31 -37 -34 c-19 -18 -39 -39 -44 -46 -6 -9 -13 -9 -28 -2 -25 14 -24
34 2 52 21 14 21 14 -10 47 -37 40 -38 44 -6 69 14 11 25 26 25 33 0 7 3 9 7
6 3 -4 20 8 37 26 17 17 35 31 40 29 5 -2 6 7 3 18 -4 17 -3 19 9 9 11 -9 14
-8 14 5 0 9 4 16 9 16 16 0 66 51 63 64 -2 6 0 8 4 3 4 -4 16 0 26 9 15 14 16
20 5 33 -10 14 -10 14 4 4 14 -11 27 -3 88 55 39 38 68 72 64 77 -5 4 -2 5 5
1 8 -5 34 15 72 53 33 34 60 59 60 57 0 -3 11 6 25 20 14 14 22 30 19 36 -4 7
-2 8 5 4 7 -5 20 1 30 13 10 12 24 21 30 21 7 0 10 4 7 8 -3 5 6 15 19 22 14
7 25 20 25 28 0 9 3 13 6 10 5 -5 54 38 188 165 21 20 43 37 47 37 4 0 11 9
14 20 4 11 11 18 16 15 5 -4 9 -1 9 4 0 19 26 12 50 -14z m-3191 -52 c83 -84
141 -134 151 -128 6 3 7 -1 4 -9 -4 -11 0 -16 12 -16 9 0 15 -3 11 -6 -7 -7
17 -34 31 -34 6 0 13 -7 16 -16 3 -8 11 -12 16 -9 6 4 9 1 8 -6 -2 -7 7 -18
20 -24 13 -7 24 -16 25 -21 1 -5 5 -8 10 -6 4 1 7 -5 7 -13 0 -9 10 -20 23
-25 12 -5 19 -9 15 -9 -10 -1 41 -51 52 -51 6 0 10 -7 10 -15 0 -8 3 -14 8
-13 4 2 22 -12 40 -30 18 -18 38 -29 44 -26 7 4 8 3 4 -4 -7 -12 60 -79 75
-75 5 2 8 -1 6 -5 -4 -13 82 -94 93 -87 6 4 10 3 9 -2 -4 -15 13 -43 26 -43 7
0 16 -7 19 -16 3 -8 11 -12 16 -9 6 4 9 2 8 -3 -3 -11 69 -82 83 -82 5 0 9 -6
9 -13 0 -13 40 -43 53 -39 5 1 6 -2 2 -8 -3 -5 1 -10 10 -10 9 0 13 -5 10 -10
-3 -6 1 -13 10 -16 33 -13 37 -41 10 -70 -31 -33 -31 -35 0 -73 25 -29 25 -31
8 -50 -20 -24 -29 -26 -47 -8 -29 27 -67 57 -72 57 -4 0 -19 -13 -34 -29 -18
-19 -32 -26 -41 -20 -7 4 -17 5 -21 3 -4 -3 -5 2 -2 10 3 9 2 16 -4 16 -5 0
-44 34 -85 75 -42 41 -82 75 -88 75 -7 0 -10 3 -6 6 7 7 -41 54 -56 54 -6 0
-7 3 -4 7 8 7 -34 39 -45 35 -5 -1 -7 2 -5 7 4 16 -173 182 -185 175 -8 -5 -9
-1 -5 10 5 12 0 19 -16 26 -12 5 -19 9 -14 9 4 1 -10 16 -30 35 -21 19 -91 86
-157 150 -65 63 -123 113 -127 110 -5 -3 -6 3 -2 12 5 14 3 16 -11 11 -9 -4
-15 -3 -12 2 3 4 -3 16 -14 26 -26 24 -25 27 10 65 l30 32 -49 45 c-43 39 -48
48 -38 64 15 24 25 24 48 -2 17 -20 17 -20 50 15 18 20 34 36 36 36 3 0 21
-17 42 -37z m3375 -198 l34 -34 25 23 c27 25 38 23 56 -11 10 -19 6 -28 -38
-75 -28 -29 -57 -60 -65 -68 -14 -13 -13 -17 14 -45 l30 -31 -37 -35 c-21 -19
-65 -56 -98 -84 -33 -27 -65 -54 -71 -60 -6 -5 -22 -19 -37 -29 -14 -11 -24
-23 -21 -28 3 -4 -4 -8 -15 -8 -12 0 -21 -7 -21 -15 0 -8 -6 -15 -14 -15 -8 0
-26 -13 -39 -30 -14 -16 -29 -30 -33 -30 -4 0 -20 -13 -36 -30 -15 -16 -33
-30 -39 -30 -6 0 -9 -7 -6 -15 4 -8 1 -17 -5 -21 -7 -4 -8 -3 -4 4 9 15 1 15
-25 2 -10 -6 -19 -18 -19 -26 0 -8 -4 -13 -8 -10 -12 7 -52 -40 -44 -50 4 -4
2 -4 -5 0 -7 4 -20 -1 -30 -11 -10 -10 -35 -31 -55 -47 -21 -16 -35 -34 -31
-39 3 -6 1 -7 -5 -3 -12 7 -64 -32 -57 -43 2 -4 -5 -7 -15 -8 -11 -1 -32 13
-48 31 l-29 34 -34 -27 c-19 -14 -41 -34 -51 -43 -9 -9 -28 -24 -43 -34 -23
-15 -28 -15 -41 -3 -12 13 -12 18 5 36 20 21 20 21 -9 59 -31 38 -37 49 -21
39 5 -3 16 4 24 15 7 11 17 17 22 12 4 -4 5 1 2 10 -4 12 0 18 14 20 11 2 19
7 19 13 -1 5 8 13 20 17 13 5 18 13 14 19 -4 7 -3 9 3 6 6 -4 33 15 61 42 28
27 53 47 56 44 2 -2 7 5 11 16 3 12 12 21 19 21 21 0 89 77 81 92 -6 10 -5 10
5 1 10 -9 18 -6 39 15 14 14 25 30 23 35 -1 5 2 6 7 3 5 -4 17 4 25 16 9 12
16 19 16 14 0 -4 15 7 34 26 19 18 31 37 28 42 -3 5 0 6 6 2 6 -3 18 4 26 16
9 12 16 19 16 15 0 -4 9 2 20 13 12 12 18 26 14 32 -4 6 -3 8 4 5 15 -10 42 3
42 21 0 8 3 13 6 9 8 -8 33 16 27 26 -2 4 1 7 7 7 6 0 18 6 25 13 140 128 229
207 232 207 2 0 19 -16 37 -35z m-1730 -39 c40 36 62 44 53 19 -4 -8 -2 -17 3
-20 21 -13 7 -37 -51 -92 -34 -32 -71 -67 -83 -78 -55 -51 -49 -53 -131 30
-61 62 -74 79 -64 91 9 11 9 14 -1 14 -10 0 -10 3 0 15 12 14 16 13 40 -10 14
-14 31 -25 36 -25 5 0 28 20 49 44 l40 44 35 -33 35 -34 39 35z m-1803 0 c5 3
9 0 9 -6 0 -6 5 -8 12 -4 7 4 8 3 4 -5 -8 -12 16 -41 34 -41 6 0 8 -4 5 -10
-3 -5 1 -10 9 -10 9 0 16 -7 16 -16 0 -8 4 -13 9 -10 5 3 11 -1 15 -9 3 -9 12
-12 23 -9 13 4 14 3 5 -3 -9 -7 -5 -15 15 -33 16 -14 35 -23 43 -22 11 2 12 1
2 -6 -9 -6 -6 -14 13 -30 14 -12 30 -22 37 -22 6 0 9 -3 6 -6 -8 -7 77 -94 91
-94 6 0 11 -4 11 -8 0 -5 12 -21 28 -35 15 -15 64 -62 109 -106 45 -43 84 -76
87 -73 4 3 6 0 6 -7 0 -15 57 -71 72 -71 5 0 6 -4 3 -10 -3 -5 1 -10 10 -10 9
0 13 -4 10 -10 -3 -5 -2 -10 3 -10 5 0 31 -21 57 -47 26 -27 52 -47 56 -46 5
2 8 -1 6 -5 -3 -12 72 -84 83 -77 5 3 7 -4 5 -15 -4 -22 -36 -69 -47 -70 -15
0 -8 -19 17 -44 l25 -25 -22 -15 c-29 -21 -47 -20 -67 2 -9 10 -39 34 -67 54
l-50 37 -28 -31 -27 -32 -23 27 c-13 15 -26 24 -30 20 -3 -3 -6 1 -6 10 0 9
-7 17 -17 17 -9 0 -14 3 -10 6 8 8 -18 34 -34 34 -7 0 -10 3 -6 6 9 9 -94 105
-106 97 -6 -3 -7 -1 -3 6 9 13 -151 178 -168 173 -6 -2 -8 0 -3 4 10 10 -23
45 -36 37 -5 -3 -7 -2 -4 4 4 5 -5 20 -18 31 -14 12 -25 26 -25 32 0 5 -7 10
-15 10 -8 0 -15 7 -15 16 0 8 -4 12 -10 9 -5 -3 -10 -2 -10 2 0 17 -149 163
-162 159 -7 -1 -10 -1 -7 1 3 2 4 14 2 26 -3 15 4 30 21 46 14 14 26 29 26 35
0 6 -27 38 -60 71 -61 61 -66 70 -51 93 6 10 13 9 32 -7 l24 -19 34 30 c21 19
37 26 39 19 2 -6 8 -9 13 -5z m3657 -272 l32 -36 27 22 c26 20 28 20 40 4 23
-31 15 -48 -62 -129 -41 -43 -75 -82 -75 -86 0 -3 7 -12 16 -19 19 -17 41 -56
25 -46 -6 4 -11 4 -11 -1 0 -4 -21 -21 -45 -38 -25 -16 -45 -33 -45 -37 0 -5
-7 -8 -16 -8 -10 0 -14 -6 -11 -14 4 -9 1 -13 -7 -10 -7 3 -24 -6 -38 -19 -14
-13 -33 -27 -43 -30 -9 -4 -13 -12 -9 -18 4 -7 3 -9 -3 -6 -5 4 -19 -2 -30
-13 -12 -10 -24 -16 -27 -13 -3 4 -6 1 -6 -5 0 -6 -18 -21 -40 -33 -21 -12
-37 -26 -34 -31 3 -4 -1 -8 -8 -8 -7 0 -25 -11 -40 -25 -15 -14 -30 -25 -33
-25 -13 0 -34 -28 -27 -35 4 -5 2 -5 -5 -2 -6 4 -18 0 -27 -8 -14 -15 -19 -12
-55 24 l-39 40 -49 -37 c-26 -20 -64 -52 -83 -69 -37 -34 -47 -38 -68 -25 -9
6 -7 13 8 30 20 21 20 22 1 41 -21 21 -40 68 -23 57 6 -3 20 6 31 20 12 15 21
23 21 18 1 -5 7 2 15 16 8 14 14 21 15 17 0 -9 174 136 222 184 14 15 30 24
34 21 4 -4 5 0 1 9 -3 10 0 16 8 15 13 -1 83 54 142 112 18 17 36 32 41 32 5
0 18 10 29 23 30 32 86 77 96 77 5 0 6 7 3 16 -3 8 -2 12 4 9 5 -3 19 3 32 14
49 41 73 60 79 61 3 0 20 -16 37 -36z m-3707 -79 c37 -35 70 -61 73 -57 4 4 6
2 4 -4 -4 -15 50 -76 61 -69 5 2 8 -3 7 -13 0 -10 6 -16 16 -16 10 1 17 -1 16
-5 -3 -15 16 -41 30 -41 8 0 13 -3 10 -6 -9 -8 165 -183 176 -176 5 3 6 1 3
-5 -3 -5 2 -16 11 -25 9 -8 25 -25 35 -37 10 -12 23 -19 29 -15 6 4 8 3 4 -4
-3 -6 3 -17 14 -25 11 -7 17 -17 13 -20 -3 -4 2 -7 12 -7 10 0 16 -2 13 -5 -6
-6 74 -91 82 -86 2 1 8 -7 12 -19 4 -12 12 -18 18 -15 23 14 0 -35 -31 -66
-24 -24 -24 -41 1 -59 28 -20 25 -27 -15 -40 -28 -9 -38 -9 -48 2 -20 19 -117
101 -138 116 -15 10 -22 9 -43 -13 -24 -24 -56 -26 -56 -3 0 10 -13 25 -104
121 -25 26 -43 47 -40 47 3 0 -1 6 -8 14 -19 19 -120 134 -158 178 -18 21 -37
35 -43 31 -6 -4 -7 -1 -2 7 5 8 2 18 -6 24 -30 24 -53 57 -44 64 6 4 23 21 38
38 l28 31 -43 48 c-24 27 -57 63 -75 80 -20 18 -31 39 -30 53 2 26 1 26 34 5
25 -17 26 -16 47 9 11 15 23 27 26 27 3 1 35 -28 71 -64z m3827 -305 c6 0 18
7 27 16 20 20 24 16 31 -28 6 -32 1 -39 -80 -120 -78 -77 -85 -87 -71 -101 15
-16 21 -52 7 -43 -9 5 -20 0 -120 -58 -35 -20 -68 -36 -72 -36 -5 0 -27 19
-49 43 l-41 42 -45 -24 c-24 -13 -64 -44 -88 -70 -24 -25 -50 -45 -58 -45 -8
1 -20 2 -27 3 -9 1 -9 7 3 24 14 22 14 25 -5 42 -20 18 -27 45 -12 45 5 0 18
8 30 18 50 42 62 52 87 68 16 10 24 23 20 32 -4 12 -2 12 8 3 11 -9 22 -4 51
23 20 19 36 32 36 28 0 -4 6 0 13 9 7 9 17 18 22 20 6 2 9 8 7 14 -2 5 0 7 4
2 4 -4 18 3 31 15 13 12 23 18 23 13 0 -4 8 1 18 11 9 11 34 30 55 44 22 15
35 30 32 39 -4 10 -2 11 8 3 10 -8 16 -6 25 9 7 11 17 17 21 14 5 -2 12 2 15
11 5 14 14 9 45 -25 21 -22 43 -41 49 -41z m-3871 -58 c9 -13 22 -21 29 -18 8
3 11 0 8 -8 -3 -8 5 -21 18 -30 12 -9 19 -16 15 -16 -4 0 2 -10 13 -22 46 -50
80 -92 80 -100 0 -4 7 -8 15 -8 8 0 15 -4 15 -10 0 -5 11 -20 25 -34 14 -14
25 -28 25 -32 0 -13 68 -73 75 -66 5 4 5 2 2 -4 -4 -6 2 -22 13 -34 21 -25 21
-25 -27 -78 -27 -29 -29 -50 -8 -58 18 -7 20 -30 3 -32 -7 0 -23 -3 -35 -6
-15 -3 -34 6 -65 33 -24 21 -56 48 -72 62 -16 13 -36 32 -45 41 -11 13 -18 14
-28 6 -7 -6 -13 -7 -13 -2 0 4 -6 -1 -14 -11 -13 -17 -14 -16 -31 18 -9 20
-22 37 -27 37 -5 0 -7 4 -3 9 3 5 -1 15 -8 23 -8 7 -19 24 -26 36 -7 12 -17
20 -23 16 -7 -4 -8 -3 -4 4 4 6 2 20 -4 31 -8 17 -4 27 29 61 50 53 46 67 -41
152 -49 48 -68 74 -68 93 0 24 1 25 23 10 22 -14 25 -13 47 10 l23 25 34 -38
c19 -20 42 -47 50 -60z m3879 -282 c37 -40 50 -48 61 -39 7 7 16 9 20 5 8 -7
15 -76 8 -76 -2 0 -31 27 -64 61 -33 33 -63 60 -66 60 -3 0 -29 -23 -58 -50
-85 -81 -99 -91 -124 -91 -20 0 -23 4 -18 21 4 13 2 25 -5 29 -7 4 -10 15 -7
25 4 9 12 13 19 9 8 -5 9 -2 4 11 -5 15 -4 16 9 5 14 -12 19 -7 16 13 -1 5 3
6 9 2 5 -3 20 0 32 7 13 7 26 12 30 13 4 0 16 7 27 17 10 9 27 18 38 21 10 3
19 5 20 6 1 0 23 -22 49 -49z m-4000 1 c-3 -4 3 -19 14 -31 11 -13 20 -29 20
-37 0 -7 6 -13 13 -13 8 0 14 -6 14 -13 0 -17 34 -68 42 -63 4 3 7 -5 7 -17 0
-12 -16 -39 -36 -60 -47 -52 -54 -65 -40 -82 13 -16 6 -20 -37 -24 -39 -3 -41
2 -10 33 50 51 85 98 81 110 -2 6 -36 40 -74 75 -57 51 -70 69 -70 93 0 27 2
29 16 17 13 -11 17 -10 25 4 6 9 17 17 25 17 8 0 13 -4 10 -9z m4534 -261 c0
-3 -7 -16 -16 -28 -15 -22 -15 -25 3 -45 10 -12 28 -30 41 -40 29 -24 28 -32
-8 -77 -16 -21 -30 -42 -30 -46 0 -5 -13 -25 -30 -44 -16 -19 -27 -36 -25 -39
3 -2 -3 -10 -12 -16 -15 -11 -15 -15 -3 -30 13 -16 15 -16 27 1 7 9 10 21 6
27 -3 6 -1 7 5 3 6 -3 20 11 33 34 13 22 27 40 31 40 5 0 6 5 3 10 -3 6 -1 10
6 10 7 0 9 8 6 21 -4 16 -3 18 9 8 11 -9 14 -7 14 10 0 25 24 28 47 6 13 -14
20 -11 63 22 26 21 60 47 76 58 15 11 33 26 41 33 17 17 73 6 73 -14 0 -8 -4
-14 -10 -14 -5 0 -14 -8 -19 -18 -8 -15 -2 -27 30 -60 36 -39 53 -72 29 -57
-5 3 -10 -1 -10 -9 0 -9 -5 -16 -11 -16 -8 0 -7 -5 1 -15 11 -13 10 -14 -2
-10 -8 3 -24 -6 -37 -21 -19 -21 -20 -28 -10 -36 10 -6 7 -7 -8 -3 -17 5 -23
2 -23 -9 0 -9 -9 -21 -20 -28 -11 -7 -20 -18 -20 -25 0 -6 -3 -13 -8 -15 -4
-1 -32 -32 -62 -68 -30 -35 -61 -71 -68 -78 -7 -8 -10 -18 -6 -23 3 -5 0 -8
-8 -7 -7 2 -12 -5 -12 -14 1 -10 -4 -14 -12 -11 -8 3 -14 0 -14 -7 0 -7 -14
-25 -31 -41 -17 -16 -28 -29 -25 -29 4 0 -3 -10 -16 -23 -13 -13 -45 -51 -73
-85 -27 -34 -53 -62 -57 -62 -5 0 -8 -7 -8 -15 0 -8 -5 -15 -11 -15 -6 0 -9
-7 -6 -14 4 -10 1 -13 -7 -10 -7 3 -17 -5 -22 -17 l-10 -22 -25 26 c-23 25
-26 26 -53 12 -44 -23 -42 -11 3 21 22 16 41 33 41 37 0 4 5 13 10 20 6 7 26
34 44 61 l34 48 -21 25 c-12 14 -32 36 -44 50 -23 24 -30 48 -15 55 11 5 52
66 52 78 0 6 7 13 15 16 8 4 15 12 15 20 0 8 4 14 9 14 5 0 16 16 25 35 9 19
21 35 27 35 6 0 8 4 5 9 -4 5 0 11 6 14 10 3 9 9 -2 21 -15 15 -19 12 -48 -29
-18 -25 -32 -50 -32 -55 0 -6 -4 -10 -8 -10 -14 0 -74 -99 -67 -110 4 -6 -1
-7 -11 -3 -11 4 -15 2 -11 -4 13 -21 -25 -23 -42 -2 -15 19 -18 20 -30 5 -18
-21 -26 -20 -28 3 -1 11 14 31 34 47 67 54 98 89 116 127 l17 38 -60 64 -60
64 25 58 c28 62 35 73 35 54 0 -17 16 -6 90 59 35 30 70 60 79 67 15 12 81 14
81 3z m-295 -111 c-20 -62 -41 -94 -62 -95 -39 -1 -35 33 10 76 47 45 62 50
52 19z m-4536 -95 c20 -18 33 -35 30 -38 -3 -3 -30 2 -61 11 -57 17 -60 21
-49 71 3 11 50 -16 80 -44z m5511 6 c3 -1 8 -2 13 -1 15 2 6 -26 -13 -44 -28
-25 -25 -35 16 -78 36 -37 37 -38 18 -60 -11 -12 -26 -27 -34 -34 -13 -11 -13
-14 0 -23 12 -9 11 -10 -6 -5 -16 4 -27 -3 -45 -30 -13 -19 -30 -35 -38 -35
-8 0 -12 -2 -9 -5 3 -3 -16 -27 -41 -53 -25 -26 -63 -66 -83 -89 -20 -23 -40
-38 -44 -35 -4 4 -4 -2 0 -13 4 -11 4 -16 0 -13 -7 8 -60 -43 -56 -54 1 -4 -4
-7 -10 -6 -7 2 -12 -5 -12 -14 1 -10 -3 -16 -10 -15 -6 1 -10 -3 -9 -10 2 -7
-4 -10 -12 -7 -8 4 -15 2 -15 -3 0 -5 -36 -46 -80 -92 -76 -78 -94 -101 -68
-85 7 4 8 3 4 -5 -4 -6 -11 -9 -15 -7 -13 8 -93 -82 -85 -95 4 -8 3 -9 -5 -5
-11 7 -71 -47 -71 -65 0 -5 -7 -9 -15 -9 -8 0 -14 -6 -12 -12 1 -7 -4 -12 -10
-11 -12 3 -17 -10 -14 -30 1 -5 -3 -6 -8 -3 -5 4 -14 -2 -20 -11 -9 -17 -11
-16 -33 5 -14 12 -35 22 -49 22 -22 1 -23 2 -6 14 9 7 17 18 17 24 0 6 4 12 8
14 4 2 23 22 41 45 l34 43 -42 45 c-22 24 -41 48 -41 51 0 4 10 15 21 25 12
10 19 25 16 33 -4 10 -1 13 7 10 7 -3 24 11 37 30 13 20 27 36 32 36 4 0 7 7
7 16 0 9 5 12 12 8 8 -5 9 -2 5 9 -4 11 -1 17 9 17 8 0 17 7 21 16 3 9 15 26
27 38 47 48 101 119 98 130 -2 6 -1 8 3 4 6 -6 63 56 120 130 5 7 21 24 35 37
14 14 22 25 18 25 -4 0 6 14 22 30 17 17 30 36 30 42 0 6 3 8 6 5 4 -3 20 13
37 36 42 60 41 59 66 36 l23 -22 37 22 c20 12 44 25 54 28 9 3 17 9 17 14 0 5
6 9 13 9 8 0 22 9 31 19 15 16 33 20 56 11z m-5895 -78 c46 -45 77 -68 109
-77 25 -8 46 -10 48 -5 2 5 27 34 56 63 l52 55 59 -21 c36 -12 57 -25 55 -32
-3 -7 30 -48 73 -91 64 -65 78 -86 78 -112 1 -35 -5 -38 -36 -19 -18 11 -24 7
-60 -30 -44 -48 -54 -51 -89 -26 -14 10 -31 18 -39 20 -8 1 -18 8 -22 15 -5 7
-9 9 -9 5 0 -4 -10 1 -22 13 -12 11 -26 20 -31 20 -4 0 -15 7 -24 16 -9 8 -22
13 -30 10 -8 -3 -12 -2 -9 2 4 7 -100 75 -139 91 -5 2 -16 10 -23 18 -8 7 -18
11 -23 8 -5 -4 -9 -1 -9 5 0 6 -4 8 -10 5 -5 -3 -10 -2 -10 4 0 6 -11 16 -25
24 l-26 13 21 24 c18 21 19 25 5 40 -19 21 -19 27 0 27 9 0 45 -29 80 -65z
m-304 -111 c39 -23 73 -41 76 -41 3 0 25 21 49 48 39 43 45 46 64 34 12 -7 25
-10 30 -7 6 4 10 2 10 -3 0 -11 41 -40 62 -44 7 -2 21 -12 31 -22 9 -10 17
-15 17 -11 0 4 8 2 18 -6 9 -8 37 -25 62 -39 25 -13 51 -30 58 -37 8 -7 18
-11 23 -8 5 4 9 2 9 -3 0 -5 21 -20 48 -33 26 -13 52 -28 57 -32 6 -4 19 -14
30 -21 19 -14 19 -15 2 -33 -16 -19 -15 -21 21 -63 20 -25 54 -62 74 -85 30
-31 37 -47 36 -72 -1 -19 -8 -33 -15 -33 -7 0 -13 4 -13 10 0 5 -11 12 -24 16
-19 4 -32 -3 -63 -36 -36 -39 -40 -41 -55 -26 -9 9 -21 16 -27 16 -6 0 -11 3
-11 8 0 4 -17 18 -38 32 -20 13 -53 37 -72 52 -19 16 -41 28 -48 28 -7 0 -10
5 -7 10 3 6 0 10 -7 10 -11 0 -30 13 -85 60 -7 6 -13 7 -13 3 0 -4 -4 -3 -8 3
-15 23 -135 104 -145 97 -5 -3 -8 -2 -5 3 3 5 0 15 -8 22 -8 7 -14 10 -14 7 0
-4 -6 0 -14 7 -8 7 -26 22 -42 33 -15 11 -33 26 -41 33 -7 7 -17 10 -23 7 -5
-3 -10 0 -10 8 0 17 -27 30 -42 20 -6 -3 -8 -1 -4 5 5 9 -42 52 -58 52 -4 0
-13 6 -20 13 -11 10 -10 17 6 39 19 28 17 68 -3 68 -6 0 -7 5 -3 11 4 7 18 -3
35 -24 16 -20 61 -54 100 -76z m6527 -6 c1 -1 -11 -15 -27 -32 l-28 -30 38
-39 c38 -39 49 -64 28 -64 -5 0 -7 -5 -3 -12 4 -6 3 -8 -2 -5 -6 3 -29 -14
-52 -39 -24 -24 -45 -44 -47 -44 -9 0 -55 -51 -55 -61 0 -6 -4 -8 -9 -5 -5 3
-23 -11 -40 -31 -17 -20 -31 -33 -31 -30 0 4 -14 -7 -30 -25 -17 -17 -29 -37
-26 -44 3 -8 -1 -11 -9 -8 -16 7 -48 -20 -37 -31 4 -4 3 -5 -3 -3 -10 3 -52
-35 -216 -193 -44 -42 -79 -75 -79 -73 0 1 -30 -27 -66 -62 -36 -35 -71 -64
-77 -64 -7 0 -6 -4 3 -10 13 -8 13 -10 -2 -10 -9 0 -24 -10 -32 -22 -9 -12
-16 -20 -16 -16 0 4 -19 -12 -42 -34 -34 -32 -39 -42 -27 -50 11 -8 10 -8 -5
-4 -15 5 -32 -6 -67 -40 l-48 -47 -30 32 c-37 39 -37 42 -11 66 28 25 25 36
-15 78 -19 20 -35 40 -35 45 0 5 36 46 79 90 44 45 77 82 75 82 -2 0 25 29 60
64 49 49 61 67 52 77 -8 9 -8 10 2 5 15 -9 44 12 36 25 -3 5 3 6 13 2 10 -3
15 -3 12 1 -4 4 22 36 57 73 35 36 64 70 64 75 0 5 5 6 10 3 6 -3 10 -1 10 4
0 6 15 25 33 42 17 17 31 35 29 40 -1 5 3 9 9 9 16 0 41 29 34 40 -3 6 1 7 9
4 9 -3 16 -1 16 4 0 6 34 45 75 86 45 45 73 81 69 88 -4 6 -3 8 3 5 6 -4 29
14 52 38 47 50 56 53 79 26 16 -19 19 -19 70 -2 28 9 62 26 74 38 20 20 22 21
47 5 14 -9 27 -17 29 -17z m-6748 -71 c45 49 52 49 97 7 12 -12 25 -21 29 -21
5 0 28 -17 81 -60 7 -6 17 -10 23 -10 5 0 10 -4 10 -10 0 -5 5 -10 11 -10 7 0
20 -10 30 -22 11 -11 19 -18 19 -14 0 4 7 0 16 -8 8 -9 20 -13 26 -10 6 4 8 3
5 -3 -4 -5 5 -16 18 -23 14 -7 25 -17 25 -22 0 -4 7 -8 15 -8 8 0 15 -4 15
-10 0 -5 4 -10 10 -10 5 0 18 -7 27 -14 60 -49 128 -94 135 -90 4 3 8 -1 8 -9
0 -7 18 -22 39 -33 22 -10 37 -22 35 -26 -3 -5 1 -8 10 -8 8 0 16 -3 18 -7 6
-15 76 -62 82 -56 3 4 6 1 6 -6 0 -7 5 -9 12 -5 6 4 8 3 4 -4 -3 -6 -1 -14 5
-17 7 -5 3 -15 -10 -29 l-21 -23 49 -69 c28 -38 56 -76 63 -84 7 -8 11 -19 9
-25 -2 -5 -5 -17 -6 -25 -2 -8 -4 -16 -4 -18 -1 -2 -17 7 -37 19 l-37 22 -38
-41 c-37 -41 -69 -48 -69 -15 0 8 -4 11 -10 8 -5 -3 -10 -1 -10 6 0 9 -3 9
-14 0 -12 -10 -13 -8 -9 10 4 13 2 20 -4 16 -5 -3 -17 5 -27 19 -11 13 -23 24
-29 24 -5 0 -18 9 -28 21 -10 11 -23 18 -29 14 -6 -3 -9 -1 -8 6 2 6 -3 14
-11 17 -9 3 -11 0 -6 -9 5 -8 4 -11 -1 -6 -5 5 -9 14 -9 20 0 7 -3 13 -7 15
-4 1 -18 12 -31 25 -61 57 -86 77 -96 77 -6 0 -11 5 -11 11 0 5 -4 7 -10 4 -5
-3 -10 1 -10 9 0 8 -9 18 -20 21 -11 3 -20 11 -20 16 0 6 -4 7 -10 4 -5 -3
-10 1 -10 9 0 9 -4 16 -8 16 -5 0 -19 9 -32 20 -12 11 -27 17 -33 13 -5 -3 -7
-1 -4 4 8 13 -82 85 -96 76 -5 -3 -7 -2 -4 4 9 14 -39 57 -53 48 -6 -3 -9 -3
-8 2 4 11 -36 51 -82 83 -19 13 -47 37 -62 53 -14 16 -30 29 -35 30 -9 2 -38
24 -63 51 -10 10 -23 15 -28 12 -16 -10 -8 20 11 38 17 17 21 29 18 54 -1 7
31 -10 72 -39 l74 -51 43 46z m-166 -136 c22 -21 45 -38 49 -38 4 0 18 -10 31
-22 13 -13 43 -39 66 -57 23 -19 48 -41 56 -48 7 -7 15 -13 19 -13 3 0 16 -10
29 -22 12 -13 37 -34 55 -48 18 -13 43 -33 56 -45 51 -45 66 -55 77 -49 6 4 8
3 4 -4 -8 -13 33 -44 47 -35 6 3 7 2 4 -4 -5 -9 35 -53 48 -53 4 0 57 -45 102
-87 13 -13 28 -23 33 -23 6 0 10 -5 10 -11 0 -5 5 -7 10 -4 6 3 10 1 10 -5 0
-6 11 -15 25 -22 13 -6 22 -15 19 -19 -5 -8 10 -13 29 -10 5 1 6 -3 3 -8 -4
-5 8 -20 26 -32 18 -13 35 -27 36 -31 2 -4 10 -8 17 -8 17 0 14 -19 -7 -49
-16 -22 -16 -27 -2 -60 9 -20 19 -43 22 -51 3 -8 16 -23 29 -33 21 -17 22 -20
7 -43 -20 -29 -35 -30 -54 -4 -20 28 -25 26 -69 -21 -36 -39 -40 -41 -60 -27
-11 8 -18 18 -14 21 3 4 0 7 -7 7 -7 0 -26 14 -42 30 -16 17 -33 28 -38 25 -6
-3 -7 1 -4 9 4 11 0 16 -10 16 -9 0 -16 5 -16 11 0 5 -5 7 -10 4 -6 -4 -9 -2
-8 3 3 10 -59 72 -73 72 -5 0 -9 7 -9 15 0 8 -4 15 -10 15 -5 0 -25 15 -44 34
-19 19 -37 32 -40 29 -3 -4 -6 2 -6 12 0 10 -2 16 -5 13 -3 -3 -30 19 -60 49
-31 29 -60 53 -65 53 -6 0 -10 7 -10 15 0 8 -4 15 -9 15 -4 0 -23 15 -42 34
-18 19 -37 32 -41 30 -4 -3 -8 0 -8 6 0 17 -51 60 -63 53 -5 -3 -7 -2 -4 4 3
5 -21 34 -55 64 -33 30 -73 67 -89 82 -16 16 -33 26 -39 22 -6 -4 -7 1 -3 11
5 14 3 16 -11 11 -11 -4 -15 -3 -10 4 6 11 -35 46 -48 41 -5 -1 -7 2 -5 7 3
11 -59 71 -75 71 -6 0 -8 3 -5 7 7 7 -34 39 -45 36 -15 -5 7 32 35 60 l28 28
30 -25 29 -25 44 45 c50 51 39 53 130 -28z"/>
<path d="M8395 8565 c-22 -19 -35 -34 -30 -34 13 0 80 57 74 63 -2 3 -22 -11
-44 -29z"/>
<path d="M1050 8563 c0 -7 4 -13 8 -13 4 0 15 -12 25 -27 25 -41 67 -90 67
-78 0 18 -100 135 -100 118z"/>
</g>
</svg>
